<svg width="67" height="67" viewBox="0 0 67 67" fill="none" xmlns="http://www.w3.org/2000/svg">
<circle cx="33.5" cy="33.5" r="33.5" fill="white"/>
<g clip-path="url(#clip0)">
<path fill-rule="evenodd" clip-rule="evenodd" d="M49.5595 33.5483H49.3459V22.2776C49.3459 20.5567 47.9457 19.1563 46.2245 19.1563H16.6213C14.9001 19.1563 13.5 20.5567 13.5 22.2776V38.1324C13.5 39.8536 14.9001 41.2537 16.6213 41.2537H33.8012V39.6912H16.6213C15.7617 39.6912 15.0625 38.9921 15.0625 38.1324V22.2776C15.0625 21.4182 15.7617 20.7188 16.6213 20.7188H46.2245C47.0842 20.7188 47.7834 21.4182 47.7834 22.2776V33.5483H37.7416C35.5687 33.5483 33.8012 35.3162 33.8012 37.4888C33.8012 40.2148 33.8012 42.0823 33.8012 44.8603C33.8012 47.0331 35.5687 48.801 37.7416 48.801H43.3269L48.1298 53.6035C48.279 53.7531 48.4789 53.8324 48.6821 53.8324C48.7828 53.8324 48.8844 53.8129 48.9809 53.7729C49.2729 53.6518 49.4631 53.367 49.4631 53.0512V48.801H49.5595C51.7323 48.801 53.4999 47.0334 53.4999 44.8606V37.4888C53.4999 35.3162 51.7323 33.5483 49.5595 33.5483ZM51.9374 44.8606C51.9374 46.1716 50.8705 47.2385 49.5595 47.2385H48.6818C48.2503 47.2385 47.9006 47.5882 47.9006 48.0197V51.1652L44.2028 47.4674C44.0563 47.3209 43.8576 47.2385 43.6504 47.2385H37.7413C36.4303 47.2385 35.3634 46.1716 35.3634 44.8606V37.4888C35.3634 36.1777 36.4303 35.1108 37.7413 35.1108H49.5595C50.8705 35.1108 51.9374 36.1777 51.9374 37.4888V44.8606Z" fill="#007D75"/>
<path fill-rule="evenodd" clip-rule="evenodd" d="M26.447 36.1763C26.5679 36.2461 26.7028 36.2809 26.8376 36.2809C26.9725 36.2809 27.1074 36.2461 27.2283 36.1763L36.3991 30.8818C36.6408 30.7423 36.7897 30.4841 36.7897 30.2052C36.7897 29.9259 36.6408 29.6681 36.3991 29.5286L27.2283 24.2338C26.9866 24.0943 26.6887 24.0943 26.447 24.2338C26.2053 24.3733 26.0564 24.6315 26.0564 24.9104V35.4997C26.0564 35.7789 26.2053 36.0368 26.447 36.1763ZM27.6189 26.2635L34.446 30.2052L27.6189 34.1465V26.2635Z" fill="#007D75"/>
</g>
<defs>
<clipPath id="clip0">
<rect width="40" height="40" fill="white" transform="translate(13.5 16.5)"/>
</clipPath>
</defs>
</svg>
