<svg width="67" height="67" viewBox="0 0 67 67" fill="none" xmlns="http://www.w3.org/2000/svg">
<circle cx="33.5" cy="33.5" r="33.5" fill="white"/>
<g clip-path="url(#clip0)">
<path d="M23.5 50.4687H14.1668C13.7988 50.4687 13.5 50.1708 13.5 49.8022V40.4687C13.5 40.1 13.7988 39.8022 14.1668 39.8022H23.5C23.868 39.8022 24.1668 40.1 24.1668 40.4687V49.8022C24.1668 50.1708 23.868 50.4687 23.5 50.4687ZM14.8333 49.1353H22.8332V41.1355H14.8333V49.1353Z" fill="#007D75"/>
<path d="M52.833 50.4687H43.4998C43.1318 50.4687 42.833 50.1708 42.833 49.8022V40.4687C42.833 40.1 43.1318 39.8022 43.4998 39.8022H52.833C53.2011 39.8022 53.4998 40.1 53.4998 40.4687V49.8022C53.4998 50.1708 53.2011 50.4687 52.833 50.4687ZM44.1666 49.1353H52.1665V41.1355H44.1666V49.1353Z" fill="#007D75"/>
<path d="M38.1667 50.4687H28.8333C28.4652 50.4687 28.1667 50.1708 28.1667 49.8022V40.4687C28.1667 40.1 28.4652 39.8022 28.8333 39.8022H38.1667C38.5348 39.8022 38.8333 40.1 38.8333 40.4687V49.8022C38.8333 50.1708 38.5348 50.4687 38.1667 50.4687ZM29.5001 49.1353H37.4999V41.1355H29.5001V49.1353Z" fill="#007D75"/>
<path d="M16.8336 45.1354C16.4655 45.1354 16.1667 44.8372 16.1667 44.4686V43.1353C16.1667 42.7666 16.4655 42.4688 16.8336 42.4688H18.1669C18.5349 42.4688 18.8334 42.7666 18.8334 43.1353C18.8334 43.5039 18.5349 43.8021 18.1669 43.8021H17.5001V44.4686C17.5001 44.8372 17.2016 45.1354 16.8336 45.1354Z" fill="#007D75"/>
<path d="M20.8334 47.8021H19.5001C19.132 47.8021 18.8333 47.5042 18.8333 47.1356C18.8333 46.7666 19.132 46.4688 19.5001 46.4688H20.1666V45.8019C20.1666 45.4333 20.4653 45.1354 20.8334 45.1354C21.2014 45.1354 21.4999 45.4333 21.4999 45.8019V47.1356C21.4999 47.5042 21.2014 47.8021 20.8334 47.8021Z" fill="#007D75"/>
<path d="M31.4998 45.1354C31.132 45.1354 30.8333 44.8372 30.8333 44.4686V43.1353C30.8333 42.7666 31.132 42.4688 31.4998 42.4688H32.8331C33.2011 42.4688 33.4999 42.7666 33.4999 43.1353C33.4999 43.5039 33.2011 43.8021 32.8331 43.8021H32.1666V44.4686C32.1666 44.8372 31.8678 45.1354 31.4998 45.1354Z" fill="#007D75"/>
<path d="M35.5001 47.8021H34.1668C33.7988 47.8021 33.5 47.5042 33.5 47.1356C33.5 46.7666 33.7988 46.4688 34.1668 46.4688H34.8333V45.8019C34.8333 45.4333 35.1321 45.1354 35.5001 45.1354C35.8679 45.1354 36.1666 45.4333 36.1666 45.8019V47.1356C36.1666 47.5042 35.8679 47.8021 35.5001 47.8021Z" fill="#007D75"/>
<path d="M38.1667 27.1356H28.8333C28.4652 27.1356 28.1667 26.8374 28.1667 26.4688V17.1356C28.1667 16.7666 28.4652 16.4688 28.8333 16.4688H38.1667C38.5348 16.4688 38.8333 16.7666 38.8333 17.1356V26.4688C38.8333 26.8374 38.5348 27.1356 38.1667 27.1356ZM29.5001 25.8019H37.4999V17.8021H29.5001V25.8019Z" fill="#007D75"/>
<path d="M31.4998 21.802C31.132 21.802 30.8333 21.5041 30.8333 21.1355V19.8022C30.8333 19.4335 31.132 19.1354 31.4998 19.1354H32.8331C33.2011 19.1354 33.4999 19.4335 33.4999 19.8022C33.4999 20.1708 33.2011 20.4687 32.8331 20.4687H32.1666V21.1355C32.1666 21.5041 31.8678 21.802 31.4998 21.802Z" fill="#007D75"/>
<path d="M35.5001 24.4686H34.1668C33.7988 24.4686 33.5 24.1708 33.5 23.8021C33.5 23.4335 33.7988 23.1353 34.1668 23.1353H34.8333V22.4688C34.8333 22.1002 35.1321 21.802 35.5001 21.802C35.8679 21.802 36.1666 22.1002 36.1666 22.4688V23.8021C36.1666 24.1708 35.8679 24.4686 35.5001 24.4686Z" fill="#007D75"/>
<path d="M46.1665 45.1354C45.7985 45.1354 45.5 44.8372 45.5 44.4686V43.1353C45.5 42.7666 45.7985 42.4688 46.1665 42.4688H47.4998C47.8679 42.4688 48.1666 42.7666 48.1666 43.1353C48.1666 43.5039 47.8679 43.8021 47.4998 43.8021H46.8333V44.4686C46.8333 44.8372 46.5345 45.1354 46.1665 45.1354Z" fill="#007D75"/>
<path d="M50.1666 47.8021H48.8333C48.4652 47.8021 48.1667 47.5042 48.1667 47.1356C48.1667 46.7666 48.4652 46.4688 48.8333 46.4688H49.5001V45.8019C49.5001 45.4333 49.7985 45.1354 50.1666 45.1354C50.5346 45.1354 50.8334 45.4333 50.8334 45.8019V47.1356C50.8334 47.5042 50.5346 47.8021 50.1666 47.8021Z" fill="#007D75"/>
<path d="M18.8333 41.1355C18.4652 41.1355 18.1667 40.8373 18.1667 40.4687V35.8019C18.1667 35.4333 18.4652 35.1354 18.8333 35.1354C19.2013 35.1354 19.5001 35.4333 19.5001 35.8019V40.4687C19.5001 40.8373 19.2013 41.1355 18.8333 41.1355Z" fill="#007D75"/>
<path d="M48.1666 41.1355C47.7985 41.1355 47.4998 40.8373 47.4998 40.4687V35.8019C47.4998 35.4333 47.7985 35.1354 48.1666 35.1354C48.5346 35.1354 48.8331 35.4333 48.8331 35.8019V40.4687C48.8331 40.8373 48.5346 41.1355 48.1666 41.1355Z" fill="#007D75"/>
<path d="M48.1668 36.4687C47.7987 36.4687 47.4999 36.1709 47.4999 35.8019C47.4999 34.6993 46.6027 33.8021 45.5001 33.8021H21.4999C20.3973 33.8021 19.5001 34.6993 19.5001 35.8019C19.5001 36.1709 19.2013 36.4687 18.8333 36.4687C18.4652 36.4687 18.1667 36.1709 18.1667 35.8019C18.1667 33.9641 19.6621 32.4688 21.4999 32.4688H45.5001C47.3379 32.4688 48.8333 33.9641 48.8333 35.8019C48.8333 36.1709 48.5348 36.4687 48.1668 36.4687Z" fill="#007D75"/>
<path d="M33.4998 41.1355C33.1318 41.1355 32.833 40.8373 32.833 40.4687V26.4687C32.833 26.1001 33.1318 25.8019 33.4998 25.8019C33.8679 25.8019 34.1666 26.1001 34.1666 26.4687V40.4687C34.1666 40.8373 33.8679 41.1355 33.4998 41.1355Z" fill="#007D75"/>
</g>
<defs>
<clipPath id="clip0">
<rect width="40" height="40" fill="white" transform="translate(13.5 13.5)"/>
</clipPath>
</defs>
</svg>
