<svg width="67" height="67" viewBox="0 0 67 67" fill="none" xmlns="http://www.w3.org/2000/svg">
<circle cx="33.5" cy="33.5" r="33.5" fill="white"/>
<g clip-path="url(#clip0)">
<path d="M47.8427 13.5H19.1574C18.7174 13.5 18.3606 13.8567 18.3606 14.2968V52.7032C18.3606 53.1433 18.7174 53.5 19.1574 53.5H47.8427C48.2827 53.5 48.6395 53.1433 48.6395 52.7032V14.2968C48.6395 13.8567 48.2827 13.5 47.8427 13.5ZM47.0459 51.9064H19.9542V15.0936H47.0459V51.9064Z" fill="#007D75"/>
<path d="M23.54 26.6474H30.4722C30.9122 26.6474 31.2691 26.2907 31.2691 25.8506V18.9183C31.2691 18.4783 30.9122 18.1215 30.4722 18.1215H23.54C23.1 18.1215 22.7432 18.4783 22.7432 18.9183V25.8506C22.7432 26.2907 23.1 26.6474 23.54 26.6474ZM24.3368 19.7151H29.6754V25.0538H24.3368V19.7151Z" fill="#007D75"/>
<path d="M23.54 37.8825H30.4722C30.9122 37.8825 31.2691 37.5257 31.2691 37.0857V35.5717C31.2691 35.1316 30.9122 34.7749 30.4722 34.7749C30.0322 34.7749 29.6754 35.1316 29.6754 35.5717V36.2888H24.3368V30.9502H29.277C29.717 30.9502 30.0738 30.5935 30.0738 30.1534C30.0738 29.7133 29.717 29.3566 29.277 29.3566H23.54C23.1 29.3566 22.7432 29.7133 22.7432 30.1534V37.0857C22.7432 37.5257 23.1 37.8825 23.54 37.8825Z" fill="#007D75"/>
<path d="M23.54 49.0379H30.4722C30.9122 49.0379 31.2691 48.6811 31.2691 48.241V41.3088C31.2691 40.8687 30.9122 40.512 30.4722 40.512H23.54C23.1 40.512 22.7432 40.8687 22.7432 41.3088V48.241C22.7432 48.6811 23.1 49.0379 23.54 49.0379ZM24.3368 42.1056H29.6754V47.4442H24.3368V42.1056Z" fill="#007D75"/>
<path d="M34.7968 21.3884H43.5398C43.9798 21.3884 44.3366 21.0317 44.3366 20.5916C44.3366 20.1515 43.9798 19.7948 43.5398 19.7948H34.7968C34.3568 19.7948 34 20.1515 34 20.5916C34 21.0317 34.3568 21.3884 34.7968 21.3884Z" fill="#007D75"/>
<path d="M34.8547 24.6554H43.5399C43.9799 24.6554 44.3367 24.2987 44.3367 23.8586C44.3367 23.4185 43.9799 23.0618 43.5399 23.0618H34.8547C34.4147 23.0618 34.0579 23.4185 34.0579 23.8586C34.0579 24.2987 34.4147 24.6554 34.8547 24.6554Z" fill="#007D75"/>
<path d="M43.5398 31.1096H34.7968C34.3568 31.1096 34 31.4663 34 31.9064C34 32.3465 34.3568 32.7032 34.7968 32.7032H43.5398C43.9798 32.7032 44.3366 32.3465 44.3366 31.9064C44.3366 31.4663 43.9798 31.1096 43.5398 31.1096Z" fill="#007D75"/>
<path d="M34.8547 35.9701H43.5399C43.9799 35.9701 44.3367 35.6134 44.3367 35.1733C44.3367 34.7332 43.9799 34.3765 43.5399 34.3765H34.8547C34.4147 34.3765 34.0579 34.7332 34.0579 35.1733C34.0579 35.6134 34.4147 35.9701 34.8547 35.9701Z" fill="#007D75"/>
<path d="M43.5398 42.1852H34.7968C34.3568 42.1852 34 42.542 34 42.9821C34 43.4221 34.3568 43.7789 34.7968 43.7789H43.5398C43.9798 43.7789 44.3366 43.4221 44.3366 42.9821C44.3366 42.542 43.9798 42.1852 43.5398 42.1852Z" fill="#007D75"/>
<path d="M34.8547 47.0458H43.5399C43.9799 47.0458 44.3367 46.6891 44.3367 46.249C44.3367 45.8089 43.9799 45.4522 43.5399 45.4522H34.8547C34.4147 45.4522 34.0579 45.8089 34.0579 46.249C34.0579 46.6891 34.4147 47.0458 34.8547 47.0458Z" fill="#007D75"/>
<path d="M26.401 32.3263C26.083 32.0223 25.5784 32.0337 25.2745 32.3518C24.9704 32.67 24.9819 33.1744 25.3 33.4785L27.3191 35.418C27.4747 35.5736 27.6786 35.6514 27.8825 35.6514C28.0864 35.6514 28.2903 35.5736 28.4459 35.418L33.187 30.6769C33.4981 30.3658 33.4981 29.8613 33.187 29.55C32.8757 29.2389 32.3714 29.2389 32.06 29.55L27.8752 33.7349L26.401 32.3263Z" fill="#007D75"/>
</g>
<defs>
<clipPath id="clip0">
<rect width="40" height="40" fill="white" transform="translate(13.5 13.5)"/>
</clipPath>
</defs>
</svg>
