<svg width="67" height="67" viewBox="0 0 67 67" fill="none" xmlns="http://www.w3.org/2000/svg">
<circle cx="33.5" cy="33.5" r="33.5" fill="white"/>
<g clip-path="url(#clip0)">
<path d="M42.6154 13.8419H20.7357C19.2273 13.8419 18 15.0692 18 16.5777V19.9958C18 20.3739 18.3063 20.6795 18.6837 20.6795H44.6667C45.0441 20.6795 45.3504 20.3739 45.3504 19.9958V16.5777C45.3504 15.0692 44.1231 13.8419 42.6154 13.8419ZM43.9829 19.312H19.3675V16.5777C19.3675 15.8228 19.9808 15.2095 20.7357 15.2095H42.6147C43.3696 15.2095 43.9829 15.8228 43.9829 16.5777V19.312Z" fill="#007D75"/>
<path d="M42.6153 37.0897C38.0908 37.0897 34.4102 40.7704 34.4102 45.2948C34.4102 49.8193 38.0908 53.5 42.6153 53.5C47.1397 53.5 50.8204 49.8193 50.8204 45.2948C50.8204 40.7704 47.1397 37.0897 42.6153 37.0897ZM42.6153 52.1324C38.845 52.1324 35.7777 49.065 35.7777 45.2948C35.7777 41.5247 38.8451 38.4573 42.6153 38.4573C46.3856 38.4573 49.4529 41.5247 49.4529 45.2948C49.4529 49.065 46.3856 52.1324 42.6153 52.1324Z" fill="#007D75"/>
<path d="M47.3744 43.7352C47.304 43.4952 47.1078 43.3126 46.8637 43.2593L44.3646 42.7157L43.2385 40.2269C43.1277 39.9814 42.8843 39.8248 42.6156 39.8248C42.3468 39.8248 42.1035 39.9813 41.9934 40.2269L40.8672 42.7157L38.3681 43.2593C38.1233 43.3127 37.9278 43.4945 37.8574 43.7352C37.7869 43.9745 37.8526 44.2337 38.0297 44.4107L39.8075 46.1885L39.2174 48.5482C39.1524 48.8067 39.2441 49.0802 39.4526 49.247C39.6611 49.4139 39.9476 49.4446 40.1862 49.325L42.6155 48.1106L45.0449 49.3256C45.142 49.3735 45.2466 49.3974 45.3505 49.3974C45.503 49.3974 45.6547 49.3468 45.7792 49.247C45.987 49.0802 46.0793 48.8074 46.0144 48.5482L45.4243 46.1885L47.2021 44.4107C47.3785 44.2337 47.4449 43.9752 47.3744 43.7352ZM44.1826 45.4946C44.0131 45.6641 43.9446 45.9103 44.0028 46.1434L44.3262 47.4365L42.9211 46.7342C42.8247 46.6864 42.72 46.6624 42.6155 46.6624C42.5108 46.6624 42.4063 46.6864 42.3091 46.7349L40.904 47.4372L41.2274 46.1442C41.2855 45.911 41.2179 45.6648 41.0476 45.4953L39.8818 44.3295L41.4934 43.9787C41.7047 43.9329 41.8818 43.7893 41.9707 43.5924L42.6155 42.1675L43.2595 43.5918C43.3484 43.7887 43.5256 43.9323 43.7368 43.9781L45.3484 44.3289L44.1826 45.4946Z" fill="#007D75"/>
<path d="M25.5214 22.7308H21.4188C21.0414 22.7308 20.7351 23.0364 20.7351 23.4145V27.5171C20.7351 27.8952 21.0414 28.2008 21.4188 28.2008H25.5214C25.8988 28.2008 26.2051 27.8952 26.2051 27.5171V23.4145C26.2051 23.0364 25.8988 22.7308 25.5214 22.7308ZM24.8376 26.8333H22.1026V24.0983H24.8376V26.8333Z" fill="#007D75"/>
<path d="M38.5129 23.4145H28.2565C27.8791 23.4145 27.5728 23.7201 27.5728 24.0982C27.5728 24.4763 27.8791 24.782 28.2565 24.782H38.5129C38.8903 24.782 39.1966 24.4763 39.1966 24.0982C39.1966 23.7201 38.8903 23.4145 38.5129 23.4145Z" fill="#007D75"/>
<path d="M41.9317 26.1496H28.2565C27.8791 26.1496 27.5728 26.4552 27.5728 26.8333C27.5728 27.2115 27.8791 27.5171 28.2565 27.5171H41.9317C42.3091 27.5171 42.6155 27.2115 42.6155 26.8333C42.6155 26.4552 42.3091 26.1496 41.9317 26.1496Z" fill="#007D75"/>
<path d="M25.5214 30.2521H21.4188C21.0414 30.2521 20.7351 30.5577 20.7351 30.9359V35.0384C20.7351 35.4166 21.0414 35.7222 21.4188 35.7222H25.5214C25.8988 35.7222 26.2051 35.4166 26.2051 35.0384V30.9359C26.2051 30.5577 25.8988 30.2521 25.5214 30.2521ZM24.8376 34.3547H22.1026V31.6197H24.8376V34.3547Z" fill="#007D75"/>
<path d="M38.5129 30.9359H28.2565C27.8791 30.9359 27.5728 31.2415 27.5728 31.6196C27.5728 31.9978 27.8791 32.3034 28.2565 32.3034H38.5129C38.8903 32.3034 39.1966 31.9978 39.1966 31.6196C39.1966 31.2415 38.8903 30.9359 38.5129 30.9359Z" fill="#007D75"/>
<path d="M41.9317 33.6709H28.2565C27.8791 33.6709 27.5728 33.9765 27.5728 34.3546C27.5728 34.7328 27.8791 35.0384 28.2565 35.0384H41.9317C42.3091 35.0384 42.6155 34.7328 42.6155 34.3546C42.6155 33.9766 42.3091 33.6709 41.9317 33.6709Z" fill="#007D75"/>
<path d="M25.5214 37.7735H21.4188C21.0414 37.7735 20.7351 38.0791 20.7351 38.4572V42.5598C20.7351 42.9379 21.0414 43.2435 21.4188 43.2435H25.5214C25.8988 43.2435 26.2051 42.9379 26.2051 42.5598V38.4572C26.2051 38.0792 25.8988 37.7735 25.5214 37.7735ZM24.8376 41.8761H22.1026V39.141H24.8376V41.8761Z" fill="#007D75"/>
<path d="M38.29 38.4573H28.2565C27.8791 38.4573 27.5728 38.7629 27.5728 39.141C27.5728 39.5191 27.8791 39.8247 28.2565 39.8247H38.29C38.6674 39.8247 38.9737 39.5191 38.9737 39.141C38.9738 38.7629 38.6675 38.4573 38.29 38.4573Z" fill="#007D75"/>
<path d="M35.914 41.1923H28.2565C27.8791 41.1923 27.5728 41.4979 27.5728 41.8761C27.5728 42.2542 27.8791 42.5598 28.2565 42.5598H35.914C36.2921 42.5598 36.5977 42.2542 36.5977 41.8761C36.5977 41.4979 36.2914 41.1923 35.914 41.1923Z" fill="#007D75"/>
<path d="M42.6147 13.8419H20.7357C19.2273 13.8419 18 15.0692 18 16.5777V43.9267C18 45.4351 19.2273 46.6624 20.7357 46.6624H35.1289C35.5063 46.6624 35.8127 46.3568 35.8127 45.9787C35.8127 45.6006 35.5063 45.295 35.1289 45.295H20.7357C19.9816 45.295 19.3675 44.6817 19.3675 43.9268V16.5777C19.3675 15.8228 19.9816 15.2095 20.7357 15.2095H42.6147C43.3696 15.2095 43.9829 15.8228 43.9829 16.5777V38.0641C43.9829 38.4423 44.2893 38.7479 44.6667 38.7479C45.0441 38.7479 45.3504 38.4423 45.3504 38.0641V16.5777C45.3504 15.0692 44.1231 13.8419 42.6147 13.8419Z" fill="#007D75"/>
</g>
<defs>
<clipPath id="clip0">
<rect width="32.8205" height="40" fill="white" transform="translate(18 13.5)"/>
</clipPath>
</defs>
</svg>
