<svg width="67" height="67" viewBox="0 0 67 67" fill="none" xmlns="http://www.w3.org/2000/svg">
<circle cx="33.5" cy="33.5" r="33.5" fill="white"/>
<g clip-path="url(#clip0)">
<path d="M47.5553 20.0435L41.7149 14.2031C41.2615 13.7498 40.6586 13.5 40.0175 13.5H21.1424C19.8186 13.5 18.7417 14.5769 18.7417 15.9007V42.3927C18.7417 43.4202 20.3422 43.4217 20.3422 42.3927V15.9007C20.3422 15.4594 20.7011 15.1005 21.1424 15.1005H39.7766V19.6154C39.7766 20.9392 40.8536 22.0161 42.1773 22.0161H46.6579V51.0994C46.6579 51.5406 46.2989 51.8996 45.8576 51.8996H21.1424C20.7011 51.8996 20.3422 51.5406 20.3422 51.0994V38.8582C20.3422 37.8307 18.7417 37.8293 18.7417 38.8582V51.0994C18.7417 52.4231 19.8186 53.5001 21.1424 53.5001H45.8577C47.1815 53.5001 48.2584 52.4231 48.2584 51.0994V21.741C48.2584 21.0997 48.0087 20.4968 47.5553 20.0435ZM41.3772 19.6154V16.1287L45.6641 20.4156H42.1774C41.7361 20.4156 41.3772 20.0567 41.3772 19.6154Z" fill="#007D75"/>
<path d="M36.412 25.4612C36.2613 25.311 36.054 25.2279 35.8441 25.2279L31.2839 25.2458C30.8431 25.2475 30.4868 25.6054 30.4868 26.0461V32.9351H28.38C27.7518 32.9351 27.3608 33.6781 27.7257 34.1962L32.8233 41.4329C33.1337 41.8733 33.8198 41.8756 34.1318 41.4329L39.2293 34.1962C39.5911 33.6826 39.2088 32.9351 38.5751 32.9351H36.6475V26.0281C36.6475 25.8153 36.5628 25.6113 36.412 25.4612ZM37.0325 34.5356L33.4775 39.5824L29.9225 34.5356H31.287C31.7289 34.5356 32.0872 34.1772 32.0872 33.7354V26.8432L35.047 26.8315V33.7354C35.047 34.1772 35.4054 34.5356 35.8472 34.5356H37.0325Z" fill="#007D75"/>
</g>
<defs>
<clipPath id="clip0">
<rect width="40" height="40" fill="white" transform="translate(13.5 13.5)"/>
</clipPath>
</defs>
</svg>
