<svg width="67" height="67" viewBox="0 0 67 67" fill="none" xmlns="http://www.w3.org/2000/svg">
<circle cx="33.5" cy="33.5" r="33.5" fill="white"/>
<g clip-path="url(#clip0)">
<path d="M36.8333 15.5H30.1666C29.7987 15.5 29.5 15.7987 29.5 16.1666C29.5 16.5346 29.7987 16.8333 30.1666 16.8333H36.8333C37.2013 16.8333 37.4999 16.5346 37.4999 16.1666C37.4999 15.7987 37.2013 15.5 36.8333 15.5Z" fill="#007D75"/>
<path d="M41.5 15.5H40.8334C40.4654 15.5 40.1667 15.7987 40.1667 16.1666C40.1667 16.5346 40.4654 16.8333 40.8334 16.8333H41.5C41.868 16.8333 42.1667 16.5346 42.1667 16.1666C42.1667 15.7987 41.868 15.5 41.5 15.5Z" fill="#007D75"/>
<path d="M34.3279 47.5H32.6725C31.6586 47.5 30.8333 48.3253 30.8333 49.3393V49.6613C30.8333 50.6753 31.6586 51.5 32.6719 51.5H34.3272C35.3412 51.5 36.1665 50.6753 36.1665 49.6613V49.3393C36.1665 48.3253 35.3412 47.5 34.3279 47.5ZM34.8333 49.6613C34.8333 49.94 34.6066 50.1666 34.3279 50.1666H32.6725C32.3933 50.1666 32.1665 49.94 32.1665 49.6613V49.3393C32.1665 49.06 32.3932 48.8333 32.6725 48.8333H34.3272C34.6066 48.8333 34.8333 49.0599 34.8333 49.3393V49.6613Z" fill="#007D75"/>
<path d="M42.4241 13.5H24.5767C23.2481 13.5 22.1667 14.5813 22.1667 15.91V51.09C22.1667 52.4187 23.2481 53.5 24.5767 53.5H42.4234C43.7521 53.5 44.8334 52.4187 44.8334 51.0907V15.91C44.8335 14.5813 43.7521 13.5 42.4241 13.5ZM43.5001 51.09C43.5001 51.6834 43.0175 52.1666 42.4241 52.1666H24.5767C23.9828 52.1666 23.5001 51.6833 23.5001 51.0906V15.91C23.5001 15.3166 23.9828 14.8334 24.5767 14.8334H42.4234C43.0174 14.8334 43.5 15.3167 43.5 15.91V51.09H43.5001Z" fill="#007D75"/>
<path d="M44.1667 17.5H22.8334C22.4654 17.5 22.1667 17.7987 22.1667 18.1666V46.1666C22.1667 46.5346 22.4654 46.8333 22.8334 46.8333H44.1668C44.5347 46.8333 44.8334 46.5346 44.8334 46.1666V18.1666C44.8334 17.7987 44.5347 17.5 44.1667 17.5ZM43.5 45.5H23.5V18.8334H43.5V45.5Z" fill="#007D75"/>
</g>
<defs>
<clipPath id="clip0">
<rect width="40" height="40" fill="white" transform="translate(13.5 13.5)"/>
</clipPath>
</defs>
</svg>
