<svg width="24" height="25" viewBox="0 0 24 25" fill="none" xmlns="http://www.w3.org/2000/svg">
<path d="M20.8195 18.2516H19.5586C19.4602 18.2516 19.3781 18.3336 19.3781 18.432V19.8805H4.61953V5.11953H19.3805V6.56797C19.3805 6.66641 19.4625 6.74844 19.5609 6.74844H20.8219C20.9203 6.74844 21.0023 6.66875 21.0023 6.56797V4.21953C21.0023 3.82109 20.6813 3.5 20.2828 3.5H3.71953C3.32109 3.5 3 3.82109 3 4.21953V20.7805C3 21.1789 3.32109 21.5 3.71953 21.5H20.2805C20.6789 21.5 21 21.1789 21 20.7805V18.432C21 18.3312 20.918 18.2516 20.8195 18.2516ZM21.2555 12.3523L17.9297 9.72734C17.8055 9.62891 17.625 9.71797 17.625 9.875V11.6562H10.2656C10.1625 11.6562 10.0781 11.7406 10.0781 11.8438V13.1562C10.0781 13.2594 10.1625 13.3438 10.2656 13.3438H17.625V15.125C17.625 15.282 17.8078 15.3711 17.9297 15.2727L21.2555 12.6477C21.2779 12.6301 21.296 12.6077 21.3085 12.5821C21.3209 12.5565 21.3274 12.5285 21.3274 12.5C21.3274 12.4715 21.3209 12.4435 21.3085 12.4179C21.296 12.3923 21.2779 12.3699 21.2555 12.3523Z" fill="currentColor"/>
</svg>
