<svg width="24" height="25" viewBox="0 0 24 25" fill="none" xmlns="http://www.w3.org/2000/svg">
<path d="M21.675 15.1652L20.1398 13.8527C20.2125 13.4074 20.25 12.9527 20.25 12.4981C20.25 12.0434 20.2125 11.5887 20.1398 11.1434L21.675 9.83087C21.7908 9.73175 21.8737 9.59972 21.9126 9.45235C21.9515 9.30498 21.9447 9.14925 21.893 9.00587L21.8719 8.94493C21.4492 7.76375 20.8164 6.66877 20.0039 5.7129L19.9617 5.66368C19.8631 5.54779 19.7318 5.46448 19.5849 5.42473C19.4381 5.38499 19.2826 5.39067 19.1391 5.44103L17.2336 6.11837C16.5305 5.54181 15.7453 5.08712 14.8969 4.76837L14.5289 2.77618C14.5011 2.62628 14.4284 2.48838 14.3204 2.38079C14.2124 2.2732 14.0742 2.20102 13.9242 2.17384L13.8609 2.16212C12.6398 1.94181 11.3555 1.94181 10.1344 2.16212L10.0711 2.17384C9.92108 2.20102 9.78289 2.2732 9.67488 2.38079C9.56687 2.48838 9.49416 2.62628 9.4664 2.77618L9.09609 4.77775C8.25442 5.09656 7.47062 5.55101 6.77577 6.12306L4.85624 5.44103C4.71272 5.39027 4.55716 5.38438 4.41022 5.42415C4.26327 5.46392 4.13191 5.54747 4.03359 5.66368L3.9914 5.7129C3.17987 6.66944 2.54712 7.76424 2.12343 8.94493L2.10234 9.00587C1.99687 9.29884 2.08359 9.62696 2.32031 9.83087L3.87421 11.1574C3.80155 11.5981 3.7664 12.0481 3.7664 12.4957C3.7664 12.9457 3.80155 13.3957 3.87421 13.834L2.32031 15.1606C2.20451 15.2597 2.12164 15.3917 2.0827 15.5391C2.04377 15.6864 2.05062 15.8422 2.10234 15.9856L2.12343 16.0465C2.54765 17.2277 3.17577 18.3176 3.9914 19.2785L4.03359 19.3277C4.13215 19.4436 4.26352 19.5269 4.41037 19.5667C4.55723 19.6064 4.71268 19.6008 4.85624 19.5504L6.77577 18.8684C7.47421 19.4426 8.25468 19.8973 9.09609 20.2137L9.4664 22.2152C9.49416 22.3651 9.56687 22.5031 9.67488 22.6106C9.78289 22.7182 9.92108 22.7904 10.0711 22.8176L10.1344 22.8293C11.3667 23.0508 12.6286 23.0508 13.8609 22.8293L13.9242 22.8176C14.0742 22.7904 14.2124 22.7182 14.3204 22.6106C14.4284 22.5031 14.5011 22.3651 14.5289 22.2152L14.8969 20.2231C15.745 19.9051 16.5345 19.449 17.2336 18.8731L19.1391 19.5504C19.2826 19.6012 19.4381 19.607 19.5851 19.5673C19.732 19.5275 19.8634 19.444 19.9617 19.3277L20.0039 19.2785C20.8195 18.3152 21.4476 17.2277 21.8719 16.0465L21.893 15.9856C21.9984 15.6973 21.9117 15.3692 21.675 15.1652ZM18.4758 11.4199C18.5344 11.7738 18.5648 12.1371 18.5648 12.5004C18.5648 12.8637 18.5344 13.227 18.4758 13.5809L18.3211 14.5207L20.0719 16.0184C19.8064 16.6298 19.4714 17.2087 19.0734 17.7434L16.8984 16.9723L16.1625 17.577C15.6023 18.0363 14.9789 18.3973 14.3039 18.6504L13.4109 18.9856L12.9914 21.259C12.3295 21.334 11.6612 21.334 10.9992 21.259L10.5797 18.9809L9.69374 18.641C9.02577 18.3879 8.40468 18.027 7.84921 17.5699L7.11327 16.9629L4.92421 17.741C4.52577 17.2043 4.19296 16.6254 3.92577 16.016L5.6953 14.5043L5.54296 13.5668C5.48671 13.2176 5.45624 12.8567 5.45624 12.5004C5.45624 12.1418 5.48437 11.7832 5.54296 11.434L5.6953 10.4965L3.92577 8.98478C4.19062 8.37306 4.52577 7.7965 4.92421 7.25978L7.11327 8.0379L7.84921 7.43087C8.40468 6.97384 9.02577 6.6129 9.69374 6.35978L10.582 6.02462L11.0016 3.7465C11.6601 3.6715 12.3328 3.6715 12.9937 3.7465L13.4133 6.01993L14.3062 6.35509C14.9789 6.60821 15.6047 6.96915 16.1648 7.42853L16.9008 8.03321L19.0758 7.26212C19.4742 7.79884 19.807 8.37775 20.0742 8.98712L18.3234 10.4848L18.4758 11.4199ZM12 8.14103C9.72187 8.14103 7.87499 9.9879 7.87499 12.266C7.87499 14.5442 9.72187 16.391 12 16.391C14.2781 16.391 16.125 14.5442 16.125 12.266C16.125 9.9879 14.2781 8.14103 12 8.14103ZM13.8562 14.1223C13.6128 14.3664 13.3234 14.5601 13.0049 14.692C12.6863 14.8239 12.3448 14.8916 12 14.891C11.2992 14.891 10.6406 14.6168 10.1437 14.1223C9.89958 13.8788 9.70596 13.5895 9.57403 13.2709C9.4421 12.9523 9.37445 12.6108 9.37499 12.266C9.37499 11.5652 9.64921 10.9067 10.1437 10.4098C10.6406 9.9129 11.2992 9.64103 12 9.64103C12.7008 9.64103 13.3594 9.9129 13.8562 10.4098C14.1004 10.6532 14.294 10.9426 14.426 11.2611C14.5579 11.5797 14.6255 11.9212 14.625 12.266C14.625 12.9668 14.3508 13.6254 13.8562 14.1223Z" fill="currentColor" />
</svg>
