<svg width="92" height="131" viewBox="0 0 92 131" fill="none" xmlns="http://www.w3.org/2000/svg">
<path d="M25.0636 58.8378C24.897 58.8378 24.7325 58.8013 24.5818 58.7309C24.431 58.6606 24.2978 58.5581 24.1914 58.4307C24.0851 58.3034 24.0084 58.1543 23.9667 57.9941C23.925 57.834 23.9194 57.6667 23.9503 57.5041L26.1844 45.7097C26.2259 45.4868 26.3348 45.2818 26.4966 45.122L53.8549 17.9521C54.0162 17.7917 54.2227 17.6836 54.4471 17.642L66.3216 15.4235C66.5028 15.3896 66.6896 15.4002 66.8658 15.4542C67.042 15.5083 67.2023 15.6042 67.3327 15.7337C67.4631 15.8631 67.5597 16.0223 67.6142 16.1972C67.6687 16.3722 67.6793 16.5577 67.6453 16.7377L65.4112 28.5317C65.3693 28.7546 65.2605 28.9596 65.0989 29.1199L37.7435 56.2892C37.5827 56.4499 37.3764 56.5581 37.1522 56.5993L25.2772 58.8183C25.2068 58.8314 25.1352 58.8379 25.0636 58.8378ZM66.5306 16.138C66.5053 16.1382 66.4802 16.1405 66.4553 16.1449L54.5808 18.3639C54.5026 18.3782 54.4307 18.4157 54.3746 18.4716L27.021 45.6428C26.965 45.6986 26.9271 45.7697 26.9121 45.8471L24.6785 57.642C24.6661 57.7045 24.6697 57.7691 24.6887 57.8299C24.7077 57.8908 24.7416 57.946 24.7874 57.9906C24.8326 58.0356 24.8883 58.0689 24.9494 58.0877C25.0106 58.1064 25.0755 58.1101 25.1384 58.0983L37.0139 55.8793C37.0916 55.865 37.163 55.8274 37.2186 55.7716L64.5741 28.6023C64.6302 28.5466 64.668 28.4754 64.6825 28.398L66.9166 16.6036C66.9273 16.5472 66.9254 16.4892 66.911 16.4337C66.8967 16.3782 66.8702 16.3264 66.8335 16.2822C66.7968 16.2379 66.7508 16.2022 66.6987 16.1775C66.6466 16.1528 66.5897 16.1398 66.5319 16.1393L66.5306 16.138Z" fill="#007D75"/>
<path d="M66.5296 58.8377C66.4592 58.8377 66.3889 58.8312 66.3197 58.8183L54.4452 56.5993C54.2206 56.5582 54.014 56.45 53.853 56.2892L26.498 29.1198C26.3363 28.9597 26.2274 28.7546 26.1858 28.5317L23.9516 16.7377C23.9175 16.5577 23.928 16.3721 23.9825 16.1971C24.0369 16.0221 24.1335 15.8629 24.264 15.7334C24.3944 15.6039 24.5547 15.5079 24.731 15.4539C24.9072 15.3999 25.094 15.3895 25.2753 15.4235L37.1503 17.642C37.3744 17.6838 37.5805 17.7919 37.7415 17.9521L65.097 45.1215C65.2586 45.2818 65.3675 45.487 65.4092 45.7101L67.6434 57.5041C67.6741 57.6666 67.6684 57.834 67.6267 57.9941C67.585 58.1543 67.5082 58.3034 67.4018 58.4307C67.2955 58.558 67.1622 58.6605 67.0114 58.7309C66.8607 58.8012 66.6961 58.8377 66.5296 58.8377ZM25.0635 16.1379C25.0059 16.1384 24.949 16.1515 24.8969 16.1762C24.8449 16.2009 24.7989 16.2366 24.7623 16.2809C24.7257 16.3252 24.6992 16.3769 24.6849 16.4324C24.6706 16.4879 24.6687 16.5458 24.6794 16.6021L26.913 28.3966C26.9279 28.4739 26.9658 28.5451 27.0219 28.6008L54.3769 55.7702C54.4328 55.8261 54.5046 55.8637 54.5826 55.8779L66.4576 58.0969C66.5206 58.1086 66.5855 58.1049 66.6467 58.0861C66.7079 58.0673 66.7635 58.0339 66.8089 57.9889C66.8542 57.9439 66.8877 57.8887 66.9067 57.8279C66.9256 57.7671 66.9293 57.7026 66.9175 57.6401L64.6834 45.8461C64.6689 45.7686 64.6311 45.6972 64.5749 45.6414L37.2195 18.472C37.1637 18.4161 37.0921 18.3786 37.0143 18.3643L25.1393 16.1453C25.1143 16.1408 25.0889 16.1383 25.0635 16.1379Z" fill="#007D75"/>
<path d="M45.7975 67.3683C45.6133 67.3681 45.4318 67.3234 45.2689 67.2379C45.106 67.1524 44.9666 67.0287 44.8627 66.8776L38.0444 56.9698C37.9152 56.7829 37.8463 56.5614 37.8472 56.3347V17.9113C37.8466 17.6846 37.9153 17.4631 38.0444 17.2762L44.8618 7.36744C44.9657 7.21639 45.1052 7.09279 45.2681 7.00736C45.4309 6.92194 45.6124 6.87727 45.7966 6.87723C45.9808 6.87735 46.1621 6.92206 46.325 7.00748C46.4879 7.09289 46.6274 7.21644 46.7313 7.36744L53.5482 17.2762C53.677 17.4633 53.7457 17.6847 53.7455 17.9113V56.3347C53.7458 56.5613 53.677 56.7827 53.5482 56.9698L46.7337 66.8762C46.6298 67.0277 46.4901 67.1517 46.327 67.2375C46.1639 67.3232 45.9821 67.3681 45.7975 67.3683ZM45.7975 7.61069C45.733 7.61 45.6694 7.62521 45.6123 7.65495C45.5552 7.68468 45.5064 7.728 45.4703 7.78106L38.653 17.6898C38.6084 17.7548 38.5846 17.8317 38.5847 17.9103V56.3338C38.5846 56.4126 38.6084 56.4895 38.653 56.5547L45.4703 66.463C45.5063 66.5162 45.555 66.5597 45.6122 66.5895C45.6693 66.6194 45.733 66.6346 45.7975 66.6339C45.862 66.6347 45.9258 66.6195 45.9829 66.5896C46.04 66.5598 46.0887 66.5163 46.1247 66.463L52.9397 56.5519C52.9847 56.4869 53.0086 56.4099 53.0084 56.331V17.9075C53.0086 17.8288 52.9847 17.7519 52.9397 17.687L46.1228 7.77828C46.0869 7.7256 46.0383 7.68259 45.9816 7.6531C45.9248 7.62361 45.8616 7.60856 45.7975 7.6093V7.61069Z" fill="#007D75"/>
<path d="M53.6894 56.0812L45.7367 48.1821L37.7836 56.0812V44.9135H26.54L34.4927 37.0148L26.54 29.1166H37.7836V17.9484L45.7367 25.8471L53.6894 17.9484V29.1166H64.932L56.9794 37.0157L64.932 44.9135H53.6894V56.0812ZM46.2579 47.6626L52.9481 54.3074V44.9135H49.0258L46.2579 47.6626ZM38.5244 44.9135V54.3074L45.2151 47.6626L42.4472 44.9135H38.5244ZM43.4928 44.9135L45.7363 47.1418L47.9797 44.9135H43.4928ZM53.6908 44.1791H63.1489L56.4582 37.5343L53.6908 40.2834V44.1791ZM49.7684 44.1791H52.9509V41.0178L49.7684 44.1791ZM42.7534 44.1791H48.7224L52.9509 39.9789V34.0503L48.7224 29.85H42.752L38.523 34.0503V39.9793L42.7534 44.1791ZM38.5244 44.1791H41.7074L38.5244 41.0178V44.1791ZM28.3269 44.1791H37.785V40.2834L35.0171 37.5343L28.3269 44.1791ZM53.6908 34.7852V39.2445L55.9343 37.0162L53.6908 34.7852ZM35.5401 37.0134L37.7836 39.2417V34.7824L35.5401 37.0134ZM53.6908 33.7444L56.4582 36.494L63.1489 29.8487H53.6894L53.6908 33.7444ZM28.3269 29.8487L35.0157 36.4977L37.7836 33.7481V29.85L28.3269 29.8487ZM49.7684 29.8487L52.9509 33.01V29.8487H49.7684ZM38.5244 29.8487V33.01L41.7074 29.8487H38.5244ZM49.0286 29.1143H52.9509V19.7217L46.2607 26.3665L49.0286 29.1143ZM43.4928 29.1143H47.983L45.7395 26.886L43.4928 29.1143ZM38.5244 29.1143H42.4472L45.2151 26.3652L38.5244 19.7217V29.1143Z" fill="#007D75"/>
<path d="M65.1405 45.0175H26.4545C26.2263 45.0178 26.0033 44.9494 25.8151 44.8211L15.8386 38.05C15.6867 37.9467 15.5624 37.8081 15.4766 37.6464C15.3907 37.4846 15.3458 37.3045 15.3458 37.1216C15.3458 36.9387 15.3907 36.7586 15.4766 36.5968C15.5624 36.435 15.6867 36.2965 15.8386 36.1931L25.8151 29.422C26.0035 29.2942 26.2264 29.2259 26.4545 29.2261H65.1405C65.3686 29.226 65.5915 29.2942 65.7799 29.422L75.7559 36.1931C75.9079 36.2964 76.0323 36.4349 76.1182 36.5967C76.2041 36.7585 76.249 36.9387 76.249 37.1216C76.249 37.3045 76.2041 37.4847 76.1182 37.6464C76.0323 37.8082 75.9079 37.9468 75.7559 38.05L65.7799 44.8211C65.5917 44.9494 65.3687 45.0178 65.1405 45.0175ZM26.4545 29.9587C26.3751 29.9587 26.2976 29.9825 26.232 30.0269L16.256 36.798C16.203 36.8338 16.1596 36.882 16.1296 36.9382C16.0996 36.9945 16.0839 37.0572 16.0839 37.1209C16.0839 37.1846 16.0996 37.2473 16.1296 37.3035C16.1596 37.3598 16.203 37.4079 16.256 37.4437L26.232 44.2148C26.2975 44.2594 26.3751 44.2832 26.4545 44.2831H65.1405C65.2197 44.2831 65.2971 44.2593 65.3625 44.2148L75.339 37.4437C75.392 37.4079 75.4354 37.3598 75.4654 37.3035C75.4954 37.2473 75.511 37.1846 75.511 37.1209C75.511 37.0572 75.4954 36.9945 75.4654 36.9382C75.4354 36.882 75.392 36.8338 75.339 36.798L65.3625 30.0269C65.2971 29.9825 65.2197 29.9587 65.1405 29.9587H26.4545Z" fill="#007D75"/>
<path d="M48.8664 7.43753L54.3896 15.4574C54.4298 15.5158 54.4862 15.5614 54.552 15.5886C54.6178 15.6158 54.6901 15.6234 54.7602 15.6106L64.4352 13.8419C64.4849 13.8328 64.5323 13.8136 64.5742 13.7855C64.6162 13.7575 64.6518 13.7211 64.679 13.6787C64.7061 13.6363 64.7242 13.5888 64.732 13.5392C64.7399 13.4895 64.7373 13.4388 64.7245 13.3902L61.2929 0.274162C61.2787 0.219374 61.2519 0.168609 61.2145 0.125878C61.1772 0.0831468 61.1304 0.0496222 61.0778 0.0279282C61.0252 0.00623427 60.9682 -0.0030324 60.9114 0.00086956C60.8545 0.00477152 60.7994 0.0217331 60.7503 0.050411L48.9842 6.91575C48.9406 6.94113 48.9028 6.97512 48.873 7.01563C48.8433 7.05614 48.8222 7.1023 48.8112 7.15123C48.8001 7.20017 48.7993 7.25083 48.8088 7.30008C48.8183 7.34934 48.8379 7.39612 48.8664 7.43753Z" fill="#007D75"/>
<path d="M69.2125 18.5788L67.4046 28.151C67.391 28.221 67.3983 28.2934 67.4255 28.3594C67.4528 28.4254 67.4988 28.482 67.5579 28.5224L75.6761 34.0786C75.7178 34.1072 75.7651 34.127 75.8149 34.1366C75.8647 34.1463 75.916 34.1456 75.9655 34.1347C76.015 34.1237 76.0618 34.1028 76.1027 34.0731C76.1437 34.0434 76.1781 34.0056 76.2038 33.9621L83.1305 22.2512C83.1594 22.2023 83.1766 22.1474 83.1806 22.0909C83.1845 22.0343 83.1753 21.9775 83.1534 21.9251C83.1316 21.8727 83.0978 21.826 83.0547 21.7888C83.0117 21.7515 82.9605 21.7247 82.9052 21.7104L69.6682 18.2942C69.6194 18.2816 69.5685 18.279 69.5187 18.2866C69.4688 18.2942 69.4211 18.3119 69.3784 18.3386C69.3357 18.3653 69.2989 18.4003 69.2704 18.4416C69.2419 18.4829 69.2222 18.5296 69.2125 18.5788Z" fill="#007D75"/>
<path d="M27.3487 13.6924L36.711 15.4374C36.7792 15.4501 36.8496 15.4428 36.9137 15.4165C36.9779 15.3902 37.0329 15.3461 37.0723 15.2893L42.5067 7.45611C42.5349 7.41577 42.5544 7.37008 42.564 7.32189C42.5736 7.2737 42.573 7.22407 42.5623 7.17611C42.5517 7.12815 42.5311 7.08289 42.502 7.0432C42.4729 7.00351 42.4358 6.97024 42.3931 6.94546L30.9383 0.260706C30.8905 0.232797 30.8368 0.216268 30.7815 0.21244C30.7262 0.208612 30.6707 0.217579 30.6195 0.238634C30.5683 0.259689 30.5227 0.292268 30.4863 0.333793C30.4498 0.375318 30.4236 0.424663 30.4097 0.477955L27.0678 13.2505C27.055 13.2979 27.0523 13.3474 27.0598 13.3959C27.0672 13.4445 27.0846 13.4909 27.111 13.5324C27.1374 13.5739 27.1721 13.6096 27.213 13.6371C27.2539 13.6646 27.3001 13.6835 27.3487 13.6924Z" fill="#007D75"/>
<path d="M15.9116 34.0907L24.005 28.592C24.0639 28.552 24.1098 28.4959 24.1372 28.4304C24.1646 28.365 24.1722 28.2931 24.1592 28.2234L22.3743 18.5927C22.3651 18.5432 22.3458 18.4961 22.3174 18.4543C22.2891 18.4125 22.2524 18.377 22.2097 18.3499C22.1669 18.3229 22.119 18.3049 22.0689 18.2971C22.0188 18.2892 21.9676 18.2917 21.9186 18.3044L8.6825 21.7206C8.6273 21.7349 8.57619 21.7618 8.53318 21.799C8.49016 21.8362 8.45641 21.8828 8.43458 21.9352C8.41276 21.9875 8.40344 22.0442 8.40737 22.1007C8.4113 22.1572 8.42836 22.2121 8.45721 22.261L15.3849 33.9737C15.4106 34.017 15.4449 34.0546 15.4859 34.0842C15.5268 34.1137 15.5733 34.1347 15.6227 34.1456C15.6721 34.1566 15.7232 34.1574 15.7729 34.1479C15.8226 34.1385 15.8698 34.119 15.9116 34.0907Z" fill="#007D75"/>
<path d="M22.3827 55.662L24.1906 46.0903C24.2041 46.0203 24.1968 45.9479 24.1696 45.8819C24.1424 45.816 24.0964 45.7593 24.0372 45.7189L15.9191 40.165C15.8774 40.1364 15.8301 40.1167 15.7804 40.1071C15.7306 40.0974 15.6794 40.0981 15.6299 40.109C15.5803 40.1198 15.5336 40.1407 15.4926 40.1703C15.4516 40.1999 15.4172 40.2376 15.3914 40.281L8.46423 51.9924C8.43538 52.0413 8.41833 52.0962 8.41444 52.1527C8.41054 52.2093 8.4199 52.266 8.44177 52.3183C8.46365 52.3707 8.49745 52.4173 8.54051 52.4545C8.58358 52.4917 8.63474 52.5185 8.68998 52.5327L21.927 55.9494C21.976 55.962 22.0271 55.9645 22.0771 55.9567C22.1271 55.9489 22.1749 55.931 22.2177 55.904C22.2604 55.8771 22.2971 55.8417 22.3255 55.8C22.3539 55.7584 22.3733 55.7114 22.3827 55.662Z" fill="#007D75"/>
<path d="M42.731 66.8028L37.2078 58.783C37.1676 58.7246 37.1111 58.6791 37.0453 58.6519C36.9796 58.6247 36.9073 58.617 36.8372 58.6298L27.1622 60.3985C27.1124 60.4076 27.0651 60.4267 27.0231 60.4548C26.9812 60.4829 26.9455 60.5192 26.9183 60.5616C26.8911 60.604 26.873 60.6515 26.8651 60.7011C26.8572 60.7508 26.8597 60.8015 26.8724 60.8501L30.3045 73.9667C30.3187 74.0214 30.3456 74.0721 30.383 74.1148C30.4203 74.1575 30.4672 74.1909 30.5198 74.2126C30.5724 74.2342 30.6293 74.2435 30.6861 74.2395C30.7429 74.2356 30.798 74.2186 30.8471 74.1899L42.6132 67.3246C42.6568 67.2992 42.6946 67.2652 42.7244 67.2247C42.7541 67.1842 42.7752 67.1381 42.7862 67.0891C42.7973 67.0402 42.7981 66.9895 42.7886 66.9403C42.7791 66.891 42.7595 66.8442 42.731 66.8028Z" fill="#007D75"/>
<path d="M64.4502 60.3887L54.8322 58.5945C54.7621 58.5815 54.6898 58.589 54.6239 58.616C54.558 58.643 54.5015 58.6885 54.4611 58.7468L48.8781 66.794C48.8494 66.8354 48.8297 66.8822 48.82 66.9315C48.8103 66.9808 48.811 67.0316 48.822 67.0806C48.833 67.1297 48.854 67.1759 48.8837 67.2166C48.9135 67.2572 48.9513 67.2913 48.9949 67.3167L60.7629 74.183C60.812 74.2117 60.8672 74.2286 60.924 74.2326C60.9808 74.2365 61.0378 74.2273 61.0904 74.2057C61.1431 74.184 61.19 74.1505 61.2274 74.1079C61.2648 74.0652 61.2917 74.0145 61.306 73.9597L64.739 60.8385C64.7514 60.7901 64.7536 60.7397 64.7456 60.6903C64.7376 60.641 64.7195 60.5938 64.6925 60.5516C64.6654 60.5095 64.6299 60.4733 64.5883 60.4453C64.5466 60.4173 64.4996 60.398 64.4502 60.3887Z" fill="#007D75"/>
<path d="M75.6821 40.1511L67.5888 45.6493C67.5295 45.6896 67.4833 45.7462 67.4559 45.8121C67.4285 45.8781 67.4211 45.9506 67.4345 46.0207L69.2195 55.6509C69.2286 55.7004 69.248 55.7475 69.2763 55.7893C69.3046 55.8311 69.3413 55.8666 69.3841 55.8937C69.4268 55.9207 69.4748 55.9387 69.5249 55.9465C69.575 55.9544 69.6261 55.9519 69.6752 55.9392L82.9108 52.523C82.966 52.5087 83.0172 52.4819 83.0603 52.4447C83.1033 52.4075 83.1371 52.3609 83.159 52.3086C83.1809 52.2562 83.1902 52.1995 83.1863 52.143C83.1824 52.0864 83.1654 52.0315 83.1365 51.9826L76.2089 40.2704C76.1834 40.2268 76.1492 40.189 76.1084 40.1591C76.0676 40.1293 76.021 40.1081 75.9716 40.0969C75.9222 40.0857 75.871 40.0848 75.8212 40.0941C75.7714 40.1034 75.724 40.1228 75.6821 40.1511Z" fill="#007D75"/>
<path d="M51.3629 17.3226L46.2683 9.91694C46.2155 9.84138 46.1451 9.77965 46.063 9.73702C45.981 9.69438 45.8898 9.67212 45.7972 9.67212C45.7046 9.67212 45.6133 9.69438 45.5313 9.73702C45.4493 9.77965 45.3788 9.84138 45.326 9.91694L40.2315 17.3226C39.7098 17.9962 40.3296 18.6113 40.6811 18.9604L42.9465 21.2105C42.9741 21.2378 43.0076 21.2584 43.0444 21.2708C43.0813 21.2832 43.1205 21.287 43.1591 21.282C43.1977 21.2769 43.2346 21.2631 43.267 21.2416C43.2993 21.2201 43.3263 21.1915 43.3457 21.158L45.5775 17.3189C45.5998 17.2807 45.6318 17.2489 45.6704 17.2268C45.7089 17.2047 45.7527 17.1931 45.7972 17.1931C45.8417 17.1931 45.8854 17.2047 45.924 17.2268C45.9625 17.2489 45.9945 17.2807 46.0168 17.3189L48.2486 21.158C48.2681 21.1915 48.295 21.2201 48.3274 21.2416C48.3597 21.2631 48.3966 21.2769 48.4352 21.282C48.4738 21.287 48.513 21.2832 48.5499 21.2708C48.5867 21.2584 48.6202 21.2378 48.6478 21.2105L50.9132 18.9604C51.2652 18.6113 51.8452 18.0877 51.3629 17.3226Z" fill="#007D75"/>
<path d="M27.767 47.2114L26.0966 56.0251C26.0801 56.1156 26.0859 56.2087 26.1135 56.2964C26.1412 56.3842 26.1898 56.464 26.2552 56.5291C26.3207 56.5941 26.401 56.6425 26.4894 56.67C26.5777 56.6975 26.6715 56.7034 26.7626 56.687L35.6384 55.0293C36.4867 54.9193 36.4862 54.0493 36.4862 53.5554V50.3732C36.4863 50.3345 36.4773 50.2964 36.4601 50.2617C36.443 50.2271 36.418 50.1968 36.3871 50.1733C36.3562 50.1497 36.3203 50.1336 36.2821 50.1261C36.2439 50.1186 36.2046 50.1199 36.167 50.1299L31.8558 51.2775C31.8127 51.2889 31.7674 51.2889 31.7244 51.2775C31.6814 51.266 31.6421 51.2435 31.6106 51.2122C31.5791 51.181 31.5565 51.142 31.545 51.0993C31.5334 51.0565 31.5334 51.0115 31.5449 50.9688L32.6999 46.6864C32.71 46.649 32.7113 46.6099 32.7038 46.572C32.6962 46.5341 32.6799 46.4984 32.6563 46.4678C32.6326 46.4371 32.6021 46.4123 32.5672 46.3952C32.5323 46.3781 32.4939 46.3693 32.455 46.3693H29.251C28.756 46.3693 27.9722 46.3326 27.767 47.2114Z" fill="#007D75"/>
<path d="M55.9583 55.0288L64.8321 56.6884C64.9233 56.7047 65.017 56.6989 65.1054 56.6714C65.1937 56.6439 65.2741 56.5955 65.3395 56.5305C65.405 56.4654 65.4536 56.3856 65.4812 56.2978C65.5088 56.2101 65.5147 56.1169 65.4982 56.0264L63.8296 47.2109C63.7188 46.3684 62.8429 46.3688 62.3456 46.3688H59.1417C59.1027 46.3688 59.0643 46.3776 59.0294 46.3947C58.9945 46.4118 58.964 46.4366 58.9404 46.4673C58.9167 46.4979 58.9004 46.5336 58.8929 46.5715C58.8853 46.6094 58.8866 46.6486 58.8967 46.6859L60.0517 50.9678C60.0633 51.0106 60.0635 51.0557 60.052 51.0985C60.0405 51.1413 60.0178 51.1803 59.9863 51.2116C59.9548 51.243 59.9155 51.2655 59.8724 51.2769C59.8293 51.2883 59.7839 51.2882 59.7408 51.2766L55.4296 50.1295C55.3921 50.1194 55.3527 50.1181 55.3145 50.1256C55.2763 50.1331 55.2404 50.1493 55.2095 50.1728C55.1787 50.1963 55.1537 50.2266 55.1365 50.2613C55.1193 50.2959 55.1104 50.3341 55.1104 50.3727V53.5549C55.1095 54.0489 55.0726 54.8255 55.9583 55.0288Z" fill="#007D75"/>
<path d="M63.8282 27.0276L65.4986 18.2139C65.5151 18.1235 65.5093 18.0304 65.4817 17.9426C65.4541 17.8548 65.4054 17.775 65.34 17.71C65.2745 17.645 65.1942 17.5967 65.1058 17.5692C65.0174 17.5418 64.9237 17.536 64.8326 17.5524L55.9568 19.2097C55.1085 19.3197 55.1085 20.1897 55.1085 20.6836V23.8658C55.1085 23.9045 55.1175 23.9426 55.1348 23.9773C55.152 24.012 55.1771 24.0422 55.208 24.0657C55.2389 24.0893 55.2748 24.1054 55.313 24.1129C55.3512 24.1204 55.3906 24.1191 55.4282 24.1091L59.7394 22.962C59.7825 22.9505 59.8278 22.9505 59.8708 22.962C59.9138 22.9734 59.9531 22.9959 59.9846 23.0272C60.016 23.0585 60.0387 23.0975 60.0502 23.1402C60.0618 23.183 60.0618 23.2279 60.0502 23.2707L58.8949 27.5526C58.8848 27.59 58.8836 27.6291 58.8912 27.667C58.8988 27.7049 58.9151 27.7406 58.9389 27.7712C58.9626 27.8019 58.9931 27.8267 59.028 27.8438C59.0629 27.8609 59.1013 27.8697 59.1402 27.8697H62.3442C62.8415 27.872 63.6235 27.9096 63.8282 27.0276Z" fill="#007D75"/>
<path d="M25.8643 31.5932L18.408 36.6532C18.3319 36.7056 18.2698 36.7756 18.2268 36.8571C18.1839 36.9385 18.1615 37.0291 18.1615 37.1211C18.1615 37.2131 18.1839 37.3037 18.2268 37.3852C18.2698 37.4667 18.3319 37.5366 18.408 37.589L25.8643 42.649C26.542 43.1671 27.1613 42.552 27.5132 42.2025L29.7787 39.9524C29.8062 39.925 29.827 39.8918 29.8395 39.8551C29.8519 39.8185 29.8558 39.7796 29.8507 39.7412C29.8456 39.7029 29.8317 39.6663 29.81 39.6341C29.7884 39.602 29.7596 39.5753 29.7259 39.5559L25.8606 37.3393C25.822 37.3172 25.79 37.2854 25.7678 37.2471C25.7456 37.2088 25.7339 37.1653 25.7339 37.1211C25.7339 37.0769 25.7456 37.0335 25.7678 36.9952C25.79 36.9569 25.822 36.9251 25.8606 36.9029L29.7259 34.6863C29.7596 34.667 29.7884 34.6402 29.81 34.6081C29.8317 34.576 29.8456 34.5393 29.8507 34.501C29.8558 34.4627 29.8519 34.4237 29.8395 34.3871C29.827 34.3505 29.8062 34.3172 29.7787 34.2898L27.5132 32.0412C27.1613 31.6907 26.6346 31.1155 25.8643 31.5932Z" fill="#007D75"/>
<path d="M40.2324 56.9191L45.3269 64.3244C45.3797 64.4 45.4501 64.4618 45.5321 64.5045C45.6142 64.5472 45.7054 64.5695 45.7981 64.5695C45.8907 64.5695 45.9819 64.5472 46.064 64.5045C46.1461 64.4618 46.2165 64.4 46.2692 64.3244L51.3638 56.9191C51.8854 56.2456 51.2656 55.6305 50.9141 55.2814L48.6487 53.0308C48.6211 53.0035 48.5876 52.9829 48.5508 52.9705C48.5139 52.9581 48.4747 52.9543 48.4361 52.9593C48.3975 52.9644 48.3606 52.9782 48.3283 52.9997C48.2959 53.0212 48.269 53.0498 48.2495 53.0833L46.0177 56.9224C45.9954 56.9606 45.9634 56.9924 45.9249 57.0145C45.8863 57.0366 45.8426 57.0482 45.7981 57.0482C45.7535 57.0482 45.7098 57.0366 45.6713 57.0145C45.6327 56.9924 45.6007 56.9606 45.5784 56.9224L43.3466 53.0833C43.3271 53.0498 43.3002 53.0212 43.2678 52.9997C43.2355 52.9782 43.1986 52.9644 43.16 52.9593C43.1214 52.9543 43.0822 52.9581 43.0453 52.9705C43.0085 52.9829 42.975 53.0035 42.9474 53.0308L40.682 55.2814C40.33 55.6305 39.7514 56.1536 40.2324 56.9191Z" fill="#007D75"/>
<path d="M65.7309 42.6481L73.1872 37.5881C73.2632 37.5357 73.3254 37.4658 73.3683 37.3843C73.4113 37.3028 73.4337 37.2122 73.4337 37.1202C73.4337 37.0282 73.4113 36.9376 73.3683 36.8562C73.3254 36.7747 73.2632 36.7047 73.1872 36.6523L65.7309 31.5923C65.0532 31.0742 64.4339 31.6898 64.0819 32.0389L61.8165 34.2889C61.789 34.3163 61.7682 34.3496 61.7557 34.3862C61.7432 34.4228 61.7394 34.4618 61.7445 34.5001C61.7496 34.5384 61.7635 34.5751 61.7852 34.6072C61.8068 34.6393 61.8356 34.6661 61.8693 34.6854L65.7346 36.902C65.7733 36.9241 65.8054 36.956 65.8277 36.9943C65.85 37.0327 65.8617 37.0761 65.8617 37.1204C65.8617 37.1647 65.85 37.2082 65.8277 37.2466C65.8054 37.2849 65.7733 37.3167 65.7346 37.3388L61.8693 39.555C61.8356 39.5744 61.8068 39.6011 61.7852 39.6332C61.7635 39.6654 61.7496 39.702 61.7445 39.7403C61.7394 39.7786 61.7432 39.8176 61.7557 39.8542C61.7682 39.8909 61.789 39.9241 61.8165 39.9515L64.0819 42.2015C64.4339 42.5511 64.9606 43.1258 65.7309 42.6481Z" fill="#007D75"/>
<path d="M35.7566 19.245L26.8827 17.5854C26.7916 17.5691 26.6978 17.575 26.6095 17.6025C26.5211 17.63 26.4407 17.6783 26.3753 17.7434C26.3098 17.8084 26.2611 17.8882 26.2334 17.976C26.2057 18.0637 26.1998 18.1569 26.2162 18.2474L27.8853 27.0629C27.9961 27.905 28.8719 27.905 29.3692 27.905H32.5732C32.6121 27.9049 32.6504 27.896 32.6853 27.8789C32.7202 27.8618 32.7506 27.837 32.7743 27.8064C32.7979 27.7757 32.8142 27.7401 32.8218 27.7022C32.8294 27.6643 32.8281 27.6252 32.8181 27.5879L31.6627 23.3055C31.6512 23.2628 31.6512 23.2178 31.6627 23.175C31.6743 23.1323 31.6969 23.0933 31.7284 23.062C31.7599 23.0308 31.7992 23.0083 31.8422 22.9968C31.8852 22.9854 31.9305 22.9853 31.9735 22.9968L36.2852 24.1444C36.3228 24.1544 36.3622 24.1557 36.4004 24.1482C36.4386 24.1407 36.4745 24.1246 36.5053 24.101C36.5362 24.0775 36.5612 24.0472 36.5784 24.0126C36.5956 23.9779 36.6045 23.9397 36.6045 23.9011V20.7189C36.6045 20.2249 36.6414 19.4483 35.7566 19.245Z" fill="#007D75"/>
<path d="M42.5478 26.6683L42.0098 27.2026C41.8173 27.3938 41.5562 27.5013 41.284 27.5016H40.517C40.3524 27.5014 40.1947 27.4364 40.0784 27.3208C39.9621 27.2052 39.8967 27.0485 39.8967 26.8851V23.734C39.8968 23.6873 39.9108 23.6417 39.9369 23.6029C39.963 23.5642 40.0001 23.5339 40.0435 23.5161C40.0869 23.4982 40.1346 23.4935 40.1807 23.5025C40.2268 23.5116 40.2691 23.5339 40.3024 23.5668L42.5459 25.7951C42.604 25.8522 42.6501 25.9201 42.6817 25.995C42.7132 26.0698 42.7295 26.1501 42.7297 26.2313C42.7299 26.3125 42.7139 26.3928 42.6827 26.4678C42.6514 26.5428 42.6056 26.6109 42.5478 26.6683Z" fill="#007D75"/>
<path d="M50.9276 27.4514H50.1662C49.8942 27.4511 49.6333 27.3438 49.4408 27.1529L48.8987 26.6144C48.841 26.5572 48.7952 26.4893 48.764 26.4145C48.7327 26.3397 48.7167 26.2595 48.7167 26.1785C48.7167 26.0976 48.7327 26.0174 48.764 25.9426C48.7952 25.8678 48.841 25.7998 48.8987 25.7426L51.1421 23.5144C51.1754 23.4815 51.2178 23.4591 51.2639 23.4501C51.3099 23.441 51.3577 23.4457 51.4011 23.4636C51.4444 23.4815 51.4815 23.5117 51.5077 23.5505C51.5338 23.5893 51.5477 23.6348 51.5478 23.6815V26.8349C51.5479 26.9159 51.5319 26.996 51.5008 27.0708C51.4696 27.1456 51.4239 27.2136 51.3663 27.2708C51.3087 27.3281 51.2403 27.3735 51.1651 27.4045C51.0898 27.4355 51.0091 27.4514 50.9276 27.4514Z" fill="#007D75"/>
<path d="M56.2952 33.8901L55.7572 33.3558C55.5649 33.1645 55.4568 32.9052 55.4567 32.6349V31.8731C55.4567 31.7097 55.522 31.553 55.6383 31.4375C55.7546 31.322 55.9124 31.2571 56.0769 31.2571H59.25C59.2971 31.257 59.343 31.2708 59.3821 31.2968C59.4213 31.3227 59.4517 31.3596 59.4697 31.4028C59.4877 31.4459 59.4923 31.4934 59.4831 31.5392C59.4739 31.585 59.4512 31.6271 59.4178 31.66L57.1743 33.8883C57.1168 33.9458 57.0483 33.9915 56.973 34.0227C56.8976 34.0539 56.8168 34.0701 56.7351 34.0703C56.6535 34.0704 56.5726 34.0546 56.4971 34.0237C56.4216 33.9928 56.353 33.9474 56.2952 33.8901Z" fill="#007D75"/>
<path d="M55.5071 42.2131V41.4569C55.5072 41.1866 55.6153 40.9273 55.8076 40.736L56.3498 40.1975C56.4662 40.082 56.6239 40.0172 56.7884 40.0172C56.9529 40.0172 57.1107 40.082 57.2271 40.1975L59.4706 42.4257C59.5039 42.4587 59.5266 42.5008 59.5359 42.5467C59.5451 42.5925 59.5404 42.64 59.5224 42.6832C59.5043 42.7264 59.4738 42.7633 59.4346 42.7892C59.3954 42.8151 59.3494 42.8288 59.3023 42.8287H56.1273C55.9629 42.8287 55.8052 42.7638 55.6889 42.6484C55.5726 42.533 55.5072 42.3764 55.5071 42.2131Z" fill="#007D75"/>
<path d="M49.024 47.5461L49.5624 47.0118C49.6577 46.9171 49.7709 46.842 49.8954 46.7908C50.0199 46.7395 50.1534 46.7132 50.2882 46.7133H51.0548C51.2193 46.7133 51.377 46.7782 51.4933 46.8937C51.6096 47.0092 51.675 47.1659 51.675 47.3293V50.4804C51.6751 50.5272 51.6613 50.5729 51.6352 50.6118C51.6091 50.6507 51.572 50.6811 51.5285 50.699C51.485 50.7169 51.4372 50.7215 51.391 50.7124C51.3449 50.7032 51.3025 50.6806 51.2693 50.6475L49.0258 48.4193C48.9679 48.3621 48.9218 48.2942 48.8903 48.2193C48.8589 48.1445 48.8426 48.0642 48.8424 47.9831C48.8422 47.9019 48.8582 47.8216 48.8893 47.7466C48.9205 47.6716 48.9662 47.6035 49.024 47.5461Z" fill="#007D75"/>
<path d="M40.6446 46.7611H41.4055C41.6778 46.7614 41.9388 46.8689 42.1314 47.0601L42.6736 47.5986C42.7898 47.7141 42.8551 47.8708 42.8551 48.0342C42.8551 48.1976 42.7898 48.3543 42.6736 48.4699L40.4301 50.6982C40.3968 50.7312 40.3544 50.7537 40.3083 50.7629C40.2621 50.772 40.2143 50.7673 40.1708 50.7494C40.1273 50.7315 40.0901 50.7012 40.064 50.6624C40.0379 50.6235 40.0239 50.5778 40.0239 50.531V47.3776C40.024 47.2141 40.0895 47.0574 40.2059 46.9418C40.3222 46.8262 40.48 46.7612 40.6446 46.7611Z" fill="#007D75"/>
<path d="M35.2766 40.3223L35.815 40.8571C36.0072 41.0483 36.1153 41.3074 36.1156 41.5776V42.3394C36.1154 42.5028 36.05 42.6595 35.9336 42.775C35.8172 42.8905 35.6594 42.9554 35.4949 42.9554H32.3222C32.2753 42.9553 32.2294 42.9414 32.1903 42.9155C32.1513 42.8896 32.1209 42.8527 32.1029 42.8096C32.0849 42.7665 32.0801 42.7191 32.0892 42.6734C32.0983 42.6276 32.1208 42.5855 32.154 42.5525L34.3974 40.3242C34.455 40.2666 34.5234 40.2209 34.5988 40.1896C34.6741 40.1584 34.755 40.1422 34.8366 40.142C34.9183 40.1419 34.9992 40.1577 35.0747 40.1886C35.1502 40.2196 35.2188 40.265 35.2766 40.3223Z" fill="#007D75"/>
<path d="M36.065 31.9998V32.7556C36.0649 33.0259 35.9568 33.2852 35.7645 33.4765L35.2224 34.015C35.106 34.1305 34.9482 34.1953 34.7837 34.1953C34.6192 34.1953 34.4614 34.1305 34.3451 34.015L32.1016 31.7868C32.0683 31.7537 32.0456 31.7116 32.0364 31.6658C32.0273 31.6199 32.032 31.5724 32.05 31.5292C32.068 31.486 32.0985 31.4491 32.1376 31.4232C32.1768 31.3972 32.2228 31.3833 32.2698 31.3834H35.4453C35.6097 31.3836 35.7674 31.4487 35.8836 31.5642C35.9998 31.6798 36.065 31.8365 36.065 31.9998Z" fill="#007D75"/>
<path d="M43.6522 40.3795H47.9424V39.2514H49.0782V34.9903H47.9424V33.8623H43.6522V34.9903H42.5165V39.2514H43.6522V40.3795Z" fill="#007D75"/>
<path d="M27.458 101.866L26.1434 98.7455H20.1497L18.8351 101.866H15.6934L22.0882 87H24.3609L30.5775 101.866H27.458ZM21.0632 96.383H25.2967L23.18 91.034L21.0632 96.383Z" fill="black"/>
<path d="M39.5724 89.4962H36.2302V101.866H33.3336V89.4962H29.9914V87H39.5724V89.4962Z" fill="black"/>
<path d="M41.4081 87H44.3047V96.3384C44.3047 97.2745 44.5423 98.01 45.0177 98.5449C45.5821 99.2284 46.3694 99.5701 47.3795 99.5701C48.3896 99.5701 49.1769 99.2284 49.7414 98.5449C50.2167 98.01 50.4544 97.2745 50.4544 96.3384V87H53.351V96.0933C53.351 97.7871 52.9796 99.1095 52.2369 100.06C51.717 100.744 51.0188 101.271 50.1424 101.643C49.2809 102.014 48.3599 102.2 47.3795 102.2C46.3991 102.2 45.4707 102.014 44.5943 101.643C43.7328 101.271 43.042 100.744 42.5221 100.06C41.7794 99.1095 41.4081 97.7871 41.4081 96.0933V87Z" fill="black"/>
<path d="M56.7484 87H61.0487C62.6827 87 63.9454 87.3715 64.8366 88.1144C65.817 88.9465 66.3072 90.0608 66.3072 91.4575C66.3072 93.0028 65.7279 94.1691 64.5693 94.9566C64.1236 95.2687 63.5814 95.4841 62.9427 95.603L67.5773 101.866H63.9676L60.0015 95.8927H59.645V101.866H56.7484V87ZM59.645 89.3625V93.8423H60.4694C60.7071 93.8423 60.9373 93.8274 61.1602 93.7977C61.3978 93.7531 61.7024 93.6714 62.0737 93.5525C62.4451 93.4188 62.7422 93.1885 62.965 92.8616C63.2026 92.5199 63.3215 92.0964 63.3215 91.5912C63.3215 91.0861 63.2101 90.67 62.9873 90.3431C62.7644 90.0014 62.4674 89.7711 62.096 89.6522C61.7246 89.5185 61.4275 89.4368 61.2047 89.4071C60.9819 89.3774 60.7517 89.3625 60.514 89.3625H59.645Z" fill="black"/>
<path d="M79.6588 101.866L78.3441 98.7455H72.3504L71.0358 101.866H67.8941L74.2889 87H76.5616L82.7782 101.866H79.6588ZM73.2639 96.383H77.4974L75.3807 91.034L73.2639 96.383Z" fill="black"/>
<path d="M84.5134 87H87.41V99.3695H92V101.866H84.5134V87Z" fill="black"/>
<path d="M2.89661 101.866H0V87H2.00534L11.0517 96.9179V87H13.9483V101.866H11.9429L2.89661 91.9255V101.866Z" fill="black"/>
<path d="M3.57212 129.113L3.90779 129.351C3.74734 129.608 3.52356 129.813 3.23644 129.968C2.95354 130.123 2.63264 130.2 2.27374 130.2C1.61505 130.2 1.07037 129.975 0.639687 129.524C0.213229 129.064 0 128.49 0 127.8C0 127.115 0.21534 126.543 0.646021 126.083C1.08092 125.628 1.6235 125.4 2.27374 125.4C2.59464 125.4 2.89654 125.466 3.17944 125.599C3.46233 125.723 3.67768 125.897 3.82546 126.123L3.49611 126.368C3.38211 126.2 3.21322 126.067 2.98943 125.97C2.76987 125.873 2.5313 125.824 2.27374 125.824C1.75439 125.824 1.3216 126.012 0.975365 126.388C0.629132 126.755 0.456015 127.225 0.456015 127.8C0.456015 128.366 0.62702 128.839 0.969031 129.219C1.31526 129.59 1.75017 129.776 2.27374 129.776C2.56086 129.776 2.81631 129.716 3.0401 129.597C3.26811 129.477 3.44545 129.316 3.57212 129.113Z" fill="black"/>
<path d="M12.9818 126.083C13.4167 126.538 13.6341 127.111 13.6341 127.8C13.6341 128.49 13.4167 129.062 12.9818 129.517C12.5511 129.972 12.0106 130.2 11.3604 130.2C10.7101 130.2 10.1676 129.972 9.73267 129.517C9.30199 129.062 9.08665 128.49 9.08665 127.8C9.08665 127.115 9.30199 126.543 9.73267 126.083C10.1676 125.628 10.7101 125.4 11.3604 125.4C12.0106 125.4 12.5511 125.628 12.9818 126.083ZM12.6588 129.219C13.005 128.843 13.1781 128.37 13.1781 127.8C13.1781 127.225 13.005 126.755 12.6588 126.388C12.3125 126.012 11.8797 125.824 11.3604 125.824C10.841 125.824 10.4082 126.012 10.062 126.388C9.71578 126.755 9.54266 127.225 9.54266 127.8C9.54266 128.37 9.71578 128.843 10.062 129.219C10.4125 129.59 10.8453 129.776 11.3604 129.776C11.8755 129.776 12.3083 129.59 12.6588 129.219Z" fill="black"/>
<path d="M22.3461 130.12H21.852L20.6233 127.953H19.7746V130.12H19.3313V125.48H20.5157C21.5628 125.48 22.0864 125.888 22.0864 126.706C22.0864 127.365 21.7549 127.762 21.092 127.899L22.3461 130.12ZM20.5157 125.891H19.7746V127.541H20.5157C20.8788 127.541 21.1554 127.471 21.3454 127.329C21.5354 127.183 21.6304 126.976 21.6304 126.706C21.6304 126.162 21.2588 125.891 20.5157 125.891Z" fill="black"/>
<path d="M29.0131 125.891H28.3417V127.555H29.0131C29.372 127.555 29.6465 127.484 29.8365 127.343C30.0307 127.197 30.1278 126.987 30.1278 126.713C30.1278 126.448 30.0307 126.244 29.8365 126.103C29.6465 125.961 29.372 125.891 29.0131 125.891ZM28.3417 127.966V130.12H27.8984V125.48H29.0131C29.524 125.48 29.9125 125.583 30.1785 125.791C30.4487 125.999 30.5838 126.306 30.5838 126.713C30.5838 127.124 30.4487 127.435 30.1785 127.648C29.9125 127.86 29.524 127.966 29.0131 127.966H28.3417Z" fill="black"/>
<path d="M39.7717 126.083C40.2066 126.538 40.424 127.111 40.424 127.8C40.424 128.49 40.2066 129.062 39.7717 129.517C39.341 129.972 38.8005 130.2 38.1503 130.2C37.5 130.2 36.9575 129.972 36.5226 129.517C36.0919 129.062 35.8765 128.49 35.8765 127.8C35.8765 127.115 36.0919 126.543 36.5226 126.083C36.9575 125.628 37.5 125.4 38.1503 125.4C38.8005 125.4 39.341 125.628 39.7717 126.083ZM39.4486 129.219C39.7949 128.843 39.968 128.37 39.968 127.8C39.968 127.225 39.7949 126.755 39.4486 126.388C39.1024 126.012 38.6696 125.824 38.1503 125.824C37.6309 125.824 37.1981 126.012 36.8519 126.388C36.5057 126.755 36.3325 127.225 36.3325 127.8C36.3325 128.37 36.5057 128.843 36.8519 129.219C37.2024 129.59 37.6351 129.776 38.1503 129.776C38.6654 129.776 39.0982 129.59 39.4486 129.219Z" fill="black"/>
<path d="M49.1359 130.12H48.6419L47.4132 127.953H46.5645V130.12H46.1212V125.48H47.3055C48.3527 125.48 48.8763 125.888 48.8763 126.706C48.8763 127.365 48.5448 127.762 47.8819 127.899L49.1359 130.12ZM47.3055 125.891H46.5645V127.541H47.3055C47.6687 127.541 47.9452 127.471 48.1352 127.329C48.3252 127.183 48.4202 126.976 48.4202 126.706C48.4202 126.162 48.0487 125.891 47.3055 125.891Z" fill="black"/>
<path d="M57.2534 128.476L56.2653 126.036H56.2527L55.2456 128.476H57.2534ZM57.4244 128.887H55.0746L54.5679 130.12H54.1056L56.0247 125.48H56.4933L58.3934 130.12H57.9247L57.4244 128.887Z" fill="black"/>
<path d="M64.4356 125.891H62.9472V125.48H66.3673V125.891H64.8789V130.12H64.4356V125.891Z" fill="black"/>
<path d="M72.3524 125.48V130.12H71.9091V125.48H72.3524Z" fill="black"/>
<path d="M81.9454 126.083C82.3803 126.538 82.5977 127.111 82.5977 127.8C82.5977 128.49 82.3803 129.062 81.9454 129.517C81.5147 129.972 80.9742 130.2 80.324 130.2C79.6737 130.2 79.1312 129.972 78.6963 129.517C78.2656 129.062 78.0502 128.49 78.0502 127.8C78.0502 127.115 78.2656 126.543 78.6963 126.083C79.1312 125.628 79.6737 125.4 80.324 125.4C80.9742 125.4 81.5147 125.628 81.9454 126.083ZM81.6224 129.219C81.9686 128.843 82.1417 128.37 82.1417 127.8C82.1417 127.225 81.9686 126.755 81.6224 126.388C81.2761 126.012 80.8433 125.824 80.324 125.824C79.8046 125.824 79.3718 126.012 79.0256 126.388C78.6794 126.755 78.5062 127.225 78.5062 127.8C78.5062 128.37 78.6794 128.843 79.0256 129.219C79.3761 129.59 79.8088 129.776 80.324 129.776C80.8391 129.776 81.2719 129.59 81.6224 129.219Z" fill="black"/>
<path d="M88.8966 125.48L91.544 129.59H91.5567V125.48H92V130.12H91.3983L88.7509 126.017H88.7382V130.12H88.2949V125.48H88.8966Z" fill="black"/>
<path d="M27.8956 106.2V108.752H22.3823V112.148H27.6659V114.7H22.3823V118.848H27.8956V121.4H19.396V106.2H27.8956Z" fill="black"/>
<path d="M44.6672 121.4L43.3119 118.21H37.1325L35.7771 121.4H32.5381L39.131 106.2H41.4742L47.8833 121.4H44.6672ZM38.0743 115.794H42.439L40.2566 110.325L38.0743 115.794Z" fill="black"/>
<path d="M53.118 106.2H56.1044V118.848H60.8366V121.4H53.118V106.2Z" fill="black"/>
<path d="M74.2109 108.752H70.7651V121.4H67.7788V108.752H64.333V106.2H74.2109V108.752Z" fill="black"/>
<path d="M80.8 106.2V112.079H89.138V106.2H92V121.4H89.138V114.632H80.8V121.4H78V106.2H80.8Z" fill="black"/>
<path d="M2.8 106.2V112.079H11.138V106.2H14V121.4H11.138V114.632H2.8V121.4H0V106.2H2.8Z" fill="black"/>
</svg>
