<svg width="16" height="16" viewBox="0 0 16 16" fill="none" xmlns="http://www.w3.org/2000/svg">
<g clip-path="url(#clip0)">
<path d="M11.3333 16.0001C9.07063 16.0001 6.66663 15.2987 6.66663 14.0001C6.66663 13.8161 6.81596 13.6667 6.99996 13.6667C7.18396 13.6667 7.33329 13.8161 7.33329 14.0001C7.33329 14.5567 8.85463 15.3334 11.3333 15.3334C13.812 15.3334 15.3333 14.5567 15.3333 14.0001C15.3333 13.8161 15.4826 13.6667 15.6666 13.6667C15.8506 13.6667 16 13.8161 16 14.0001C16 15.2987 13.596 16.0001 11.3333 16.0001Z" fill="currentColor"/>
<path d="M11.3333 14.0001C9.07063 14.0001 6.66663 13.2987 6.66663 12.0001C6.66663 11.8161 6.81596 11.6667 6.99996 11.6667C7.18396 11.6667 7.33329 11.8161 7.33329 12.0001C7.33329 12.5567 8.85463 13.3334 11.3333 13.3334C13.812 13.3334 15.3333 12.5567 15.3333 12.0001C15.3333 11.8161 15.4826 11.6667 15.6666 11.6667C15.8506 11.6667 16 11.8161 16 12.0001C16 13.2987 13.596 14.0001 11.3333 14.0001Z" fill="currentColor"/>
<path d="M11.3333 12C9.07063 12 6.66663 11.2987 6.66663 10C6.66663 8.70133 9.07063 8 11.3333 8C13.596 8 16 8.70133 16 10C16 11.2987 13.596 12 11.3333 12ZM11.3333 8.66667C8.85463 8.66667 7.33329 9.44333 7.33329 10C7.33329 10.5567 8.85463 11.3333 11.3333 11.3333C13.812 11.3333 15.3333 10.5567 15.3333 10C15.3333 9.44333 13.812 8.66667 11.3333 8.66667Z" fill="currentColor"/>
<path d="M15.6667 14.3334C15.4827 14.3334 15.3334 14.1841 15.3334 14.0001V10.0001C15.3334 9.81608 15.4827 9.66675 15.6667 9.66675C15.8507 9.66675 16 9.81608 16 10.0001V14.0001C16 14.1841 15.8507 14.3334 15.6667 14.3334Z" fill="currentColor"/>
<path d="M6.99996 14.3334C6.81596 14.3334 6.66663 14.1841 6.66663 14.0001V10.0001C6.66663 9.81608 6.81596 9.66675 6.99996 9.66675C7.18396 9.66675 7.33329 9.81608 7.33329 10.0001V14.0001C7.33329 14.1841 7.18396 14.3334 6.99996 14.3334Z" fill="currentColor"/>
<path d="M4.66667 8.00008C2.404 8.00008 0 7.29875 0 6.00008C0 5.81608 0.149333 5.66675 0.333333 5.66675C0.517333 5.66675 0.666667 5.81608 0.666667 6.00008C0.666667 6.55675 2.188 7.33342 4.66667 7.33342C7.14533 7.33342 8.66667 6.55675 8.66667 6.00008C8.66667 5.81608 8.816 5.66675 9 5.66675C9.184 5.66675 9.33333 5.81608 9.33333 6.00008C9.33333 7.29875 6.92933 8.00008 4.66667 8.00008Z" fill="currentColor"/>
<path d="M4.66667 6.00008C2.404 6.00008 0 5.29875 0 4.00008C0 3.81608 0.149333 3.66675 0.333333 3.66675C0.517333 3.66675 0.666667 3.81608 0.666667 4.00008C0.666667 4.55675 2.188 5.33341 4.66667 5.33341C7.14533 5.33341 8.66667 4.55675 8.66667 4.00008C8.66667 3.81608 8.816 3.66675 9 3.66675C9.184 3.66675 9.33333 3.81608 9.33333 4.00008C9.33333 5.29875 6.92933 6.00008 4.66667 6.00008Z" fill="currentColor"/>
<path d="M4.66667 12.0001C2.404 12.0001 0 11.2987 0 10.0001C0 9.81608 0.149333 9.66675 0.333333 9.66675C0.517333 9.66675 0.666667 9.81608 0.666667 10.0001C0.666667 10.5567 2.188 11.3334 4.66667 11.3334C5.02933 11.3334 5.34533 11.3187 5.63133 11.2887C5.812 11.2687 5.97867 11.4021 5.998 11.5847C6.01733 11.7674 5.88467 11.9321 5.702 11.9514C5.39133 11.9847 5.05267 12.0001 4.66667 12.0001Z" fill="currentColor"/>
<path d="M4.66667 14.0001C2.404 14.0001 0 13.2987 0 12.0001C0 11.8161 0.149333 11.6667 0.333333 11.6667C0.517333 11.6667 0.666667 11.8161 0.666667 12.0001C0.666667 12.5567 2.188 13.3334 4.66667 13.3334C5.02933 13.3334 5.34533 13.3187 5.63133 13.2887C5.812 13.2654 5.97867 13.4021 5.998 13.5847C6.01733 13.7674 5.88467 13.9321 5.702 13.9514C5.39133 13.9847 5.05267 14.0001 4.66667 14.0001Z" fill="currentColor"/>
<path d="M4.66667 10.0001C2.404 10.0001 0 9.29875 0 8.00008C0 7.81608 0.149333 7.66675 0.333333 7.66675C0.517333 7.66675 0.666667 7.81608 0.666667 8.00008C0.666667 8.55675 2.188 9.33341 4.66667 9.33341C5.02933 9.33341 5.34533 9.31875 5.63133 9.28875C5.812 9.26741 5.97867 9.40141 5.998 9.58475C6.01733 9.76741 5.88467 9.93208 5.702 9.95141C5.39133 9.98474 5.05267 10.0001 4.66667 10.0001Z" fill="currentColor"/>
<path d="M4.66667 4C2.404 4 0 3.29867 0 2C0 0.701333 2.404 0 4.66667 0C6.92933 0 9.33333 0.701333 9.33333 2C9.33333 3.29867 6.92933 4 4.66667 4ZM4.66667 0.666667C2.188 0.666667 0.666667 1.44333 0.666667 2C0.666667 2.55667 2.188 3.33333 4.66667 3.33333C7.14533 3.33333 8.66667 2.55667 8.66667 2C8.66667 1.44333 7.14533 0.666667 4.66667 0.666667Z" fill="currentColor"/>
<path d="M0.333333 12.3334C0.149333 12.3334 0 12.1841 0 12.0001V2.00008C0 1.81608 0.149333 1.66675 0.333333 1.66675C0.517333 1.66675 0.666667 1.81608 0.666667 2.00008V12.0001C0.666667 12.1841 0.517333 12.3334 0.333333 12.3334Z" fill="currentColor"/>
<path d="M8.99996 6.33342C8.81596 6.33342 8.66663 6.18408 8.66663 6.00008V2.00008C8.66663 1.81608 8.81596 1.66675 8.99996 1.66675C9.18396 1.66675 9.33329 1.81608 9.33329 2.00008V6.00008C9.33329 6.18408 9.18396 6.33342 8.99996 6.33342Z" fill="currentColor"/>
</g>
<defs>
<clipPath id="clip0">
<rect width="16" height="16" fill="white"/>
</clipPath>
</defs>
</svg>
