<svg width="18" height="16" viewBox="0 0 18 16" fill="none" xmlns="http://www.w3.org/2000/svg">
<path fill-rule="evenodd" clip-rule="evenodd" d="M10.4411 8.48609L12.4083 5.05291C12.4267 5.01982 12.462 4.99997 12.4987 4.99997H17.5221C17.6098 4.99997 17.6583 5.10188 17.6046 5.17203L15.0097 8.48492H17.8954C17.9897 8.48492 18.0355 8.6014 17.9674 8.66625L10.3924 15.9697C10.3164 16.0438 10.1933 15.971 10.2182 15.8678L11.3892 11.1347H9.10481C9.0236 11.1347 8.97382 11.046 9.01443 10.9759L9.8762 9.47192C9.81091 9.41727 9.72361 9.33808 9.60865 9.22311C8.77808 8.39255 7.67506 7.93552 6.50025 7.93552C5.32545 7.93552 4.22242 8.39255 3.39185 9.22311C2.58912 10.0258 2.13502 11.0849 2.10572 12.2158C2.10425 12.2788 2.05298 12.33 1.98853 12.33H1.10963C1.09399 12.3301 1.0785 12.3269 1.06409 12.3209C1.04968 12.3148 1.03663 12.3059 1.02571 12.2947C1.01479 12.2835 1.00622 12.2702 1.0005 12.2557C0.994789 12.2411 0.992047 12.2256 0.992438 12.2099C1.00589 11.5142 1.15258 10.8275 1.42457 10.187C1.70143 9.53274 2.10236 8.9383 2.60523 8.43649C3.1106 7.92966 3.69947 7.53268 4.35572 7.25583C4.35865 7.25436 4.36158 7.25326 4.36451 7.25217C4.36744 7.25107 4.37037 7.24997 4.3733 7.2485C3.4607 6.58786 2.86744 5.51413 2.86744 4.3027C2.86744 2.29587 4.49341 0.669891 6.50025 0.669891C8.50709 0.669891 10.1331 2.29587 10.1331 4.3027C10.1331 5.51413 9.5398 6.58786 8.6272 7.24704C8.63013 7.2485 8.63306 7.2496 8.63599 7.2507C8.63892 7.2518 8.64185 7.2529 8.64478 7.25436C9.29903 7.53123 9.89346 7.93216 10.3953 8.43503C10.4125 8.45215 10.4277 8.46917 10.4411 8.48609ZM4.719 6.08395C5.19508 6.56003 5.82789 6.82224 6.50025 6.82224C7.17261 6.82224 7.80543 6.56003 8.2815 6.08395C8.75758 5.60788 9.01978 4.97507 9.01978 4.3027C9.01978 3.63034 8.75758 2.99753 8.2815 2.52145C7.80543 2.04538 7.17261 1.78317 6.50025 1.78317C5.82789 1.78317 5.19508 2.04538 4.719 2.52145C4.24293 2.99753 3.98072 3.63034 3.98072 4.3027C3.98072 4.97507 4.24293 5.60788 4.719 6.08395ZM12.5314 10.2347L11.7416 13.4245L15.9306 9.38627H13.1667L15.8952 5.90132H12.9532L10.4697 10.2347H12.5314Z" fill="white"/>
</svg>
