<svg width="17" height="12" viewBox="0 0 17 12" fill="none" xmlns="http://www.w3.org/2000/svg">
<path d="M8.5 12C10.9761 12 13.4828 11.1757 13.4828 9.60001V6.18992L15.8276 5.12324V11.4C15.8276 11.7313 16.0901 12 16.4138 12C16.7375 12 17 11.7313 17 11.4V4.20002C17 3.93398 16.8376 3.7313 16.6411 3.64682L8.73806 0.0517499C8.58647 -0.01725 8.41348 -0.01725 8.26188 0.0517499L0.34809 3.65174C0.136469 3.74804 0 3.9629 0 4.20002C0 4.43708 0.136411 4.652 0.34809 4.7483L3.51724 6.18992V9.60001C3.51724 11.1757 6.02386 12 8.5 12ZM12.3103 9.60001C12.3103 9.95887 11.0139 10.8 8.5 10.8C5.98605 10.8 4.68966 9.95887 4.68966 9.60001V6.72331L8.26188 8.34835C8.33768 8.38279 8.41887 8.40001 8.5 8.40001C8.58113 8.40001 8.66232 8.38279 8.73812 8.34835L12.3103 6.72325V9.60001ZM2.02951 4.20008L8.5 1.25661L14.9705 4.20008L8.5 7.14343L2.02951 4.20008Z" fill="white"/>
</svg>
