<svg width="12" height="15" viewBox="0 0 12 15" fill="none" xmlns="http://www.w3.org/2000/svg">
<path d="M10.2906 1.66875H9.45625V0.834375C9.45625 0.374274 9.08198 0 8.62187 0H3.84595C3.62486 0 3.41138 0.0890869 3.25602 0.244446L0.244446 3.25591C0.0911511 3.4092 0 3.62214 0 3.84595V11.57C0 12.0301 0.374274 12.4044 0.834375 12.4044H1.66875V13.4056C1.66875 13.8657 2.04302 14.24 2.50312 14.24H10.2906C10.7507 14.24 11.125 13.8657 11.125 13.4056V2.50312C11.125 2.04302 10.7507 1.66875 10.2906 1.66875ZM3.3375 0.949645V3.3375H0.949536L3.3375 0.949645ZM0.834375 11.8481C0.680972 11.8481 0.55625 11.7234 0.55625 11.57V3.89375H3.61562C3.76925 3.89375 3.89375 3.76925 3.89375 3.61562V0.55625H8.62187C8.77528 0.55625 8.9 0.680972 8.9 0.834375V11.57C8.9 11.7234 8.77528 11.8481 8.62187 11.8481H0.834375ZM10.5687 13.4056C10.5687 13.559 10.444 13.6838 10.2906 13.6838H2.50312C2.34972 13.6838 2.225 13.559 2.225 13.4056V12.4044H8.62187C9.08198 12.4044 9.45625 12.0301 9.45625 11.57V2.225H10.2906C10.444 2.225 10.5687 2.34972 10.5687 2.50312V13.4056Z" fill="#262626" fill-opacity="0.7"/>
</svg>
