<svg width="14" height="14" viewBox="0 0 14 14" fill="none" xmlns="http://www.w3.org/2000/svg">
<path d="M7 14C3.13996 14 0 10.8597 0 7C0 3.14027 3.13996 0 7 0C10.86 0 14 3.14027 14 7C14 10.8597 10.86 14 7 14ZM7 0.583324C3.46183 0.583324 0.583324 3.46183 0.583324 7C0.583324 10.5382 3.46183 13.4167 7 13.4167C10.5382 13.4167 13.4167 10.5382 13.4167 7C13.4167 3.46183 10.5382 0.583324 7 0.583324Z" fill="#676767"/>
<path d="M9.7828 7.24526L5.69948 9.87026C5.61004 9.92864 5.4944 9.93179 5.40211 9.88109C5.30811 9.82982 5.25 9.73182 5.25 9.62502V4.37502C5.25 4.26821 5.30811 4.17021 5.40211 4.11894C5.4454 4.09529 5.49382 4.08334 5.54168 4.08334C5.59636 4.08334 5.65163 4.09874 5.69948 4.12977L9.7828 6.75477C9.86598 6.80831 9.91668 6.9009 9.91668 7.00002C9.91668 7.09914 9.86598 7.1917 9.7828 7.24526ZM5.83332 4.90937V9.09067L9.08554 7.00002L5.83332 4.90937Z" fill="#676767"/>
</svg>
