<svg width="16" height="16" viewBox="0 0 16 16" fill="none" xmlns="http://www.w3.org/2000/svg">
<path d="M4.19844 2.08585L11.7938 7.59522C12.0688 7.79522 12.0688 8.2046 11.7938 8.40303L4.19844 13.914C4.17976 13.9275 4.15769 13.9357 4.13467 13.9374C4.11166 13.9392 4.0886 13.9346 4.06805 13.9241C4.0475 13.9136 4.03026 13.8976 4.01825 13.8779C4.00624 13.8581 3.99992 13.8355 4 13.8124L4 12.6405C4 12.5608 4.03906 12.4858 4.10312 12.439L10.2219 7.99991L4.10313 3.56085C4.03906 3.51397 4 3.43897 4 3.35928L4 2.18741C4 2.08585 4.11563 2.02647 4.19844 2.08585Z" fill="white"/>
</svg>
